<svg width="64" height="64" viewBox="0 0 64 64" fill="none" xmlns="http://www.w3.org/2000/svg">
<g clip-path="url(#clip0_124_506)">
<path d="M34.3704 64C52.0435 64 66.3704 49.6731 66.3704 32C66.3704 14.3269 52.0435 0 34.3704 0C16.6972 0 2.37036 14.3269 2.37036 32C2.37036 49.6731 16.6972 64 34.3704 64Z" fill="#505050"/>
<path d="M34.3703 58.6668C19.6664 58.6668 7.70361 46.7041 7.70361 32.0002C7.70361 17.2963 19.6664 5.3335 34.3703 5.3335C49.0748 5.3335 61.0369 17.2963 61.0369 32.0002C61.0369 46.7041 49.0748 58.6668 34.3703 58.6668Z" fill="#FFD866"/>
<path opacity="0.3" d="M40.3064 46.0446C41.8954 46.0446 43.1836 44.7565 43.1836 43.1675C43.1836 41.5784 41.8954 40.2903 40.3064 40.2903C38.7174 40.2903 37.4292 41.5784 37.4292 43.1675C37.4292 44.7565 38.7174 46.0446 40.3064 46.0446Z" fill="black"/>
<path opacity="0.3" d="M29.5855 46.0447C31.1745 46.0447 32.4627 44.7565 32.4627 43.1675C32.4627 41.5785 31.1745 40.2903 29.5855 40.2903C27.9964 40.2903 26.7083 41.5785 26.7083 43.1675C26.7083 44.7565 27.9964 46.0447 29.5855 46.0447Z" fill="black"/>
<path opacity="0.3" d="M45.1767 24.9876L41.7264 21.5374L38.2761 24.9876H45.1767Z" fill="black"/>
<path opacity="0.3" d="M35.1294 24.9875C34.8382 23.2593 33.3405 21.9409 31.5295 21.9409C29.7186 21.9409 28.2218 23.2595 27.9304 24.9875H35.1294Z" fill="black"/>
<path opacity="0.3" d="M24.9012 26.2568V24.9875H24.9072V21.4877L20.7982 19.9551L20.3704 21.1019L23.6833 22.3375V37.8425H46.1785L50.3704 26.2568H24.9012Z" fill="black"/>
<path d="M39.3064 45.0446C40.8954 45.0446 42.1836 43.7565 42.1836 42.1675C42.1836 40.5784 40.8954 39.2903 39.3064 39.2903C37.7174 39.2903 36.4292 40.5784 36.4292 42.1675C36.4292 43.7565 37.7174 45.0446 39.3064 45.0446Z" fill="#505050"/>
<path d="M28.5855 45.0447C30.1745 45.0447 31.4627 43.7565 31.4627 42.1675C31.4627 40.5785 30.1745 39.2903 28.5855 39.2903C26.9964 39.2903 25.7083 40.5785 25.7083 42.1675C25.7083 43.7565 26.9964 45.0447 28.5855 45.0447Z" fill="#505050"/>
<path d="M44.1767 23.9876L40.7264 20.5374L37.2761 23.9876H44.1767Z" fill="#505050"/>
<path d="M34.1294 23.9875C33.8382 22.2593 32.3405 20.9409 30.5295 20.9409C28.7186 20.9409 27.2218 22.2595 26.9304 23.9875H34.1294Z" fill="#505050"/>
<path d="M23.9012 25.2568V23.9875H23.9072V20.4877L19.7982 18.9551L19.3704 20.1019L22.6833 21.3375V36.8425H45.1785L49.3704 25.2568H23.9012Z" fill="#505050"/>
</g>
<defs>
<clipPath id="clip0_124_506">
<rect width="64" height="64" fill="white"/>
</clipPath>
</defs>
</svg>
