<svg width="61" height="64" viewBox="0 0 61 64" fill="none" xmlns="http://www.w3.org/2000/svg">
<g clip-path="url(#clip0_2_6)">
<path d="M46.9095 55.1485L46.8878 54.9558L46.7931 55.3019L46.186 55.3444C46.3144 55.549 46.4426 55.7542 46.5704 55.9599L46.6005 55.9415L46.5403 55.8265L46.5905 55.6455L46.9095 55.1485Z" fill="#FFA100"/>
<path d="M46.1099 53.8524L46.2715 53.9041L46.31 54.0284L46.7664 54.3945L46.7655 54.3803L46.5411 54.1652L46.5311 53.8699L46.7245 53.8099L46.7237 53.8049L46.9246 53.6773L46.2254 53.4813L46.1099 53.8524Z" fill="#FFA100"/>
<path d="M45.2639 53.3912L44.9483 52.815L44.5547 51.9885L44.5212 51.9543L44.3813 52.4756L44.5078 52.3922L44.4718 52.6615C44.7565 53.0963 45.0409 53.5352 45.3251 53.9783H45.3695L45.4532 53.9291L45.5713 53.8182L45.3477 53.6406L45.2639 53.3912Z" fill="#FFA100"/>
<path d="M39.8321 45.1059L39.6747 45.0275L39.3984 44.9942L39.0132 44.8958C39.1617 45.0909 39.3096 45.2874 39.457 45.4854L39.5466 45.402L39.9896 45.5446L39.9502 45.4804L39.8321 45.1059Z" fill="#FFA100"/>
<path d="M30.6611 35.1136L31.0003 35.4631L31.0756 35.4998L31.0773 35.4964L31.4726 35.0644L31.4834 34.8701L31.3327 35.1945L30.6611 35.1136Z" fill="#FFA100"/>
<path d="M29.328 33.4148L29.2183 33.4356L29.3213 33.4565L29.6018 33.529L29.5875 33.5132L29.328 33.4148Z" fill="#FFA100"/>
<path d="M34.9134 38.3276L34.9033 38.3493L34.2719 38.8722L34.1982 38.9556C34.4489 39.2425 34.7001 39.5327 34.9519 39.8262L34.9452 39.7337L35.0641 39.2683L35.1436 38.6796L35.1838 38.6229L35.1604 38.6078L34.9134 38.3276Z" fill="#FFA100"/>
<path d="M33.5416 36.7155L33.2653 36.6829L32.8315 36.5712L32.4765 36.2885L32.4664 36.2751L32.4413 36.3002L31.7856 36.2868C32.3093 36.8428 32.8318 37.4124 33.3532 37.9956L33.5559 37.7454L33.6145 37.6328L33.6404 37.0707L33.7409 36.9223L33.6999 36.7905L33.5416 36.7155Z" fill="#FFA100"/>
<path d="M26.0572 30.7671L26.1008 30.7238L25.8286 30.5703L26.0572 30.7671Z" fill="#FFA100"/>
<path d="M60.7154 17.3679C59.9182 20.1616 56.6069 21.7723 50.7815 22.1998C54.7943 16.2054 43.6822 9.73389 47.9931 0C38.817 2.04985 47.5953 10.7388 39.8989 17.7198C36.0076 21.2533 30.6483 22.0756 32.674 12.8529C34.5218 8.56858 34.1868 4.59341 31.6691 0.927355C29.749 10.6229 14.4333 21.9329 14.646 4.86611C9.80253 9.04088 9.10751 16.5515 12.5609 27.3978C13.6601 27.9627 14.7557 28.5826 15.8476 29.2575L15.8886 29.1258L16.4019 28.6479L16.994 28.8389L17.2301 29.5853L17.0317 30.0123C18.3006 30.8462 19.5639 31.7533 20.8217 32.7335L21.0025 32.344L20.8217 32.2214L21.3685 31.857L21.7202 31.8637L21.7461 31.8928L21.8064 31.8695L21.8902 31.7027L22.2452 31.5659L22.2059 31.4408L22.2846 31.274L22.6798 30.8421L22.72 30.1282L22.483 29.8005L22.5232 29.5061L23.0282 29.4385L23.5021 29.6745L23.6989 29.878L24.6066 30.2258L24.2038 30.737H24.2122L24.6066 30.7245L25.1593 30.7904L24.883 31.1765L24.6451 31.6869L24.2507 31.7002L23.7818 31.8812L23.4661 31.7244V31.3074L23.8999 30.9997L24.0389 30.8479L23.5055 30.9363L22.952 32.128L22.9905 32.6717L22.9788 32.8861L23.0885 32.831L23.441 32.8377L23.8856 32.7543L24.2382 32.761L24.9525 32.5875L25.2213 32.4991L25.1216 32.7743L25.1107 33.0103L25.3619 32.5934L25.6776 32.751L26.1114 32.8627V33.2797L26.2688 33.7801L26.1114 34.1203L25.4792 34.6441L24.8872 35.292L24.7289 35.2128L24.1318 35.026L23.5951 34.7583L23.4351 34.8108L24.0305 35.2912L24.0623 35.4413C24.6206 35.9367 25.1766 36.4465 25.7304 36.9708L26.0762 36.8332H26.2529L26.5125 36.9316L26.9488 37.0342L27.4864 36.8574L27.8306 37.0517L27.9059 37.3344L27.6279 37.6113L27.3934 37.6888L27.4923 37.7005L27.9009 37.5429L27.916 37.7514L28.0449 37.8164H28.2166L28.1823 37.8815L28.2317 37.9056L28.3497 37.8598L28.8438 38.4352L28.6076 38.1075L28.647 37.8131L29.1603 37.7547L29.6334 37.9907L29.8311 38.1934L30.7379 38.5419L30.264 39.1441L30.1761 39.1582L30.2707 39.1749L30.305 39.3042L30.362 39.1824L30.9146 38.8288L31.2697 38.6921L31.3718 38.2576L31.5661 37.8856L31.6256 37.8556L31.5075 37.7622V37.3452L31.5469 37.0508L31.824 36.6639L32.1397 36.402L32.5341 36.3895L32.8498 36.5471L33.2836 36.6589L33.6001 36.8165L34.3102 36.9608L34.5866 36.9941L34.3889 37.2101L34.152 37.7205L33.9418 38.014L33.9326 38.2159L33.7132 39.1507H33.5365L33.0826 39.4234L32.3432 39.6678L32.3307 39.7337L32.8716 40.1707L33.091 41.1972L33.2978 41.3532L33.7165 41.3774L33.8739 41.4558L34.0716 41.6593L34.3906 41.9094L34.919 41.6993H35.0949L35.3553 41.7985L35.7916 41.9011L36.3292 41.7235L36.6725 41.9178L36.7478 42.2005L36.4698 42.4765L35.9322 42.6542L35.7648 42.4632L35.5052 42.3648L35.2029 42.4223L35.1761 42.6225L34.8202 42.7601L34.3286 42.7017L33.1906 42.9194L33.3414 43.3947L32.8674 44.4163V44.5931C33.0254 44.7816 33.1831 44.9712 33.3405 45.1619L33.5298 45.1844L33.6872 45.2628L33.6152 45.4954C33.7709 45.6861 33.9267 45.8779 34.0825 46.0709L34.3663 46.2126L34.4844 46.1668L35.1149 46.9015L34.9793 47.2017C35.2646 47.5653 35.5501 47.9328 35.8359 48.3042L35.944 48.2625L36.2588 48.0023L36.3911 47.7171L35.8552 47.9239L35.8954 47.6295L35.8158 47.3793L36.1324 47.1183L36.5661 47.2301L36.5343 47.4661L37.0485 47.1375L38.2325 46.6796L37.9964 46.3527L37.6413 46.0709V45.6539L37.6815 45.3587L37.9579 44.9725L38.2736 44.7107L38.6688 44.6982L38.9845 44.8558L39.4183 44.9675L39.734 45.1252L40.4441 45.2694L40.7204 45.3028L40.5228 45.5188L40.2858 46.0292L39.7323 46.8022L39.5749 46.7188L39.0615 46.7772L38.2325 46.678L38.5876 47.3802L38.39 48.4343L38.7048 49.0105L38.9016 49.6335L39.0038 49.6393L39.0506 49.621L39.0666 49.6427L39.8487 49.686L40.0069 49.7653L40.2037 49.9688L40.5588 50.2506L41.1114 50.3165L41.3476 50.6443L41.3082 50.9386L40.9532 51.0762L40.4005 51.0104L40.3218 50.7602L40.1242 50.5575L39.6921 50.4491L39.389 50.4583L39.3672 50.6192L39.0917 50.5867L38.9334 50.3707L37.5827 50.023L37.71 50.4241L37.5986 50.6609C37.7248 50.8333 37.851 51.007 37.9771 51.1822L38.601 51.2922L38.3673 51.7234C38.7844 52.3066 39.2005 52.8979 39.6159 53.4972L39.6628 53.503L39.7122 53.5281L39.7365 53.4664L40.0756 53.5606L40.5236 53.5889L40.5931 53.9992L40.8318 54.4563L40.7321 54.8199L40.7053 54.8515L40.6392 54.995C40.7715 55.191 40.9046 55.3894 41.0369 55.5871L41.0202 55.0951L41.1324 54.8649L41.0026 54.7998V53.9659L41.186 53.895L41.1793 53.8341L41.5745 52.9827L42.288 52.7058L42.3667 52.539L42.7217 52.4014L42.6824 52.2771L42.7619 52.1103L43.1563 51.6784L43.1965 50.9645L42.9579 50.6292L42.9972 50.334L43.5105 50.2757L43.9837 50.5125L44.1813 50.7151L45.0882 51.0629L44.6142 51.665L43.9828 51.7701L43.4293 52.961L43.4687 53.5056L43.4302 54.1861L43.9711 53.9776L44.2081 54.3053L43.9309 55.1109L43.7333 55.7464L43.5759 55.663L43.2995 55.6296L43.2208 55.5913L43.23 55.6888L43.2694 55.8131V56.2301L43.3632 56.5278L43.8782 56.9631L43.987 56.8956L44.3262 56.9898L44.9835 56.5878L45.5538 56.8505L45.5638 57.1466L45.4642 57.5102L45.2883 57.6178L45.3226 58.0981V58.1265L45.336 58.1448L45.8494 58.2366C45.8703 58.2224 45.8904 58.2082 45.913 58.1949C46.0302 58.1273 46.1977 58.0814 46.325 58.159C46.361 58.1809 46.3949 58.206 46.4263 58.2341L46.6708 58.2833L46.8668 58.1632L46.5653 57.5227L46.3141 57.2367L46.4238 56.7696L46.6105 56.7079V56.6604L46.6449 56.5895L46.6273 56.3393L46.7462 55.874L46.7554 55.8014L46.5787 55.9073L46.3811 55.7038L46.4205 55.4095L47.0527 54.8857L47.329 54.9191L47.4873 54.9975L47.5358 55.01V55.0217L47.6447 55.0759L47.5358 55.1951V55.4295L47.6548 55.8056L47.7385 55.7222L47.7092 55.6697L47.7527 54.7323L47.9403 54.5405C47.918 54.3537 47.899 54.1669 47.8834 53.9801C47.7954 52.9009 47.736 51.7809 47.7996 50.6785L47.6832 50.5859L47.6045 50.3357L47.6832 50.1689L47.8457 50.1064C47.9663 48.9305 48.2518 47.7871 48.8221 46.7464C48.9221 46.537 49.0359 46.3345 49.1629 46.1401C49.1815 46.1122 49.2031 46.0865 49.2274 46.0634C49.4627 45.0234 49.8629 44.0093 50.29 43.0561C50.9917 41.4875 52.1322 39.9455 53.5642 38.9522C53.8738 38.6013 54.2067 38.2714 54.5607 37.9648C54.9726 37.6062 55.398 37.2577 55.81 36.9024C56.217 36.4717 56.5981 36.0175 56.9514 35.5422C57.8156 34.3363 58.4587 32.9853 58.9753 31.5993C60.3168 26.1753 61.5821 20.7029 60.7154 17.3679ZM11.7687 20.9539L11.5711 21.1699L11.216 20.888L11.1373 20.6378L11.216 20.471L11.453 20.3793L11.6113 20.4577L11.8474 20.7854L11.7687 20.9539ZM12.2594 25.6415L12.3783 24.7575L12.7727 24.3256L13.0491 24.3581L13.2073 24.4365L13.0097 25.0719L12.2594 25.6415ZM14.5823 25.7516L14.2114 26.1569L14.0933 26.2028L14.0531 26.498L13.7768 26.8841L13.3823 26.8966L12.9486 26.7849L12.7116 26.4571L12.8699 26.1169L13.4619 25.4689L13.7784 25.207L13.8571 25.0403L14.2516 25.0269L14.3906 25.0436V24.8209L14.7456 24.6842L15.1007 24.966L15.6525 25.4514L15.1785 26.0535L14.5823 25.7516ZM16.0896 26.8174L15.3787 27.0918L15.418 26.7966L15.3393 26.5464L15.655 26.2845L16.0896 26.3963L16.0502 26.6915L16.0896 26.8174ZM16.0327 21.822L15.7563 22.209L15.5202 21.4584V21.0415L15.5595 20.7471L15.7974 20.6553L15.9548 20.7346L16.1909 21.4851L16.0327 21.822ZM17.9034 29.2659L17.7058 29.4819L17.3507 29.2L17.272 28.9498L17.3507 28.783L17.5852 28.688L17.7434 28.7664L17.9796 29.0941L17.9034 29.2659ZM18.889 29.7863L18.6126 29.7538L18.3765 29.426L18.1789 29.2234L18.2191 28.9281L18.5741 28.7905L18.8103 29.1191L18.925 29.4886L18.889 29.7863ZM18.7558 22.8645L18.518 23.3749L18.1236 23.3882L17.6497 23.5708L17.334 23.4124V22.9954L17.7686 22.6877L17.9662 22.4717L18.0851 22.4258L18.4795 22.4133L19.0322 22.4792L18.7558 22.8645ZM22.1648 30.1324L21.8885 30.5193L21.8299 30.3342L21.5326 30.5802L21.2177 30.4226L20.9414 29.9706L21.1784 29.4594L21.6632 29.2726L21.6925 29.0582L21.9295 28.9665L22.0869 29.0457L22.3231 29.7963L22.1648 30.1324ZM30.2297 25.3655L30.4147 25.1812H30.5906L30.9347 25.3763L30.9255 25.5631L30.825 25.8434L30.3879 25.7408L30.2204 25.5498L30.2297 25.3655ZM29.9349 35.714L30.1719 36.0418L30.2506 36.2919L29.8553 36.3044L29.6586 36.1018L29.5405 35.7282L29.9349 35.714ZM27.2988 35.257L27.2729 35.8199L26.9203 35.8133L26.886 35.7932L26.7361 36.1101V36.5271L26.4598 36.4938L26.0645 36.5071L26.1834 36.0418L26.1441 35.498L26.2638 35.0335L26.3425 34.4439L26.6197 34.0578L26.8249 34.1103L27.1983 33.5624L27.3491 34.1287L27.4068 34.7867L27.2988 35.257ZM27.4127 32.8194L27.2712 32.0688L27.2226 31.2232L27.7686 30.8579L28.2317 30.3984L28.575 30.5927L28.6244 31.4383L28.6822 32.0963H28.5055L28.2367 32.1847L27.7075 32.1747L27.514 32.5458L27.4127 32.8194ZM27.9989 34.6449L28.3548 34.5081L29.1436 34.9017L28.8279 35.1628L28.2358 35.3921L28.0776 35.3129L27.6832 35.3262L27.6045 35.076L27.9989 34.6449ZM30.6291 37.2076L30.4532 37.266L30.4449 37.3327L30.2866 37.673L29.5765 37.9448L28.3137 37.3152L27.88 37.2034L27.6832 36.5813L28.3941 36.3069L28.8279 36.8373L28.9459 36.7923L29.2616 36.9491L29.9717 36.6747L30.1275 36.784L30.2112 36.7281L30.5638 36.7348L30.7312 36.9257L30.6291 37.2076ZM31.5502 35.3688L30.9975 35.3029L30.722 34.8509L31.3534 34.7458L31.6683 34.9034L31.7478 35.1536L31.5502 35.3688ZM31.8458 30.3717L31.376 31.023L31.1156 30.9246L31.0411 30.6411L31.4288 29.898L31.6968 29.8096L32.0501 29.8163L31.8458 30.3717ZM36.0662 44.026L36.3024 44.3538L36.3811 44.6039L35.9867 44.6165L35.789 44.413L35.6726 44.0394L36.0662 44.026ZM34.1327 42.9569L34.4877 42.8193L35.2774 43.2137L34.9609 43.4748L34.3688 43.7041L34.2114 43.6249L33.8162 43.6382L33.7375 43.388L34.1327 42.9569ZM36.5779 45.6447L36.4196 45.985L35.9883 46.1518L36.1349 46.2802L35.6601 46.8823L34.8713 46.4887V45.8424L34.4459 45.6297L34.0113 45.518L33.8145 44.8958L34.5254 44.6215L34.9592 45.1518L35.0773 45.1068L35.393 45.2636L36.1039 44.9892L36.6164 45.3503L36.5779 45.6447ZM37.1464 24.5616L37.2478 24.2822L37.3407 24.1896L37.7016 24.0095L38.2392 23.8319L38.1295 24.2989L38.1036 24.8618L37.7418 25.0428L37.3717 25.4105L37.0192 25.4039L36.8609 25.0252L37.1464 24.5616ZM34.5464 23.5725H34.7222L35.2246 24.1454L35.2071 24.5207L35.0965 24.9877L34.5941 24.4148L34.435 24.0362L34.3605 23.7535L34.5464 23.5725ZM34.2315 30.3233L33.8873 30.1299L33.9049 29.7546L34.2089 28.9156L34.4023 28.5437L34.4115 28.356L34.7725 28.1759L35.0413 28.0867L35.1342 27.9949L35.4692 28.3769L35.1652 29.2159L35.0731 29.3076L35.1484 29.5911L35.0379 30.0581L34.677 30.2391L34.2315 30.3233ZM36.1399 40.1306L36.1139 40.6935L35.7614 40.6869L35.4181 40.4926L35.4122 40.45L35.1786 40.9504L34.8629 40.7928L34.6268 40.465L34.7448 39.9997L34.9433 39.3642L35.4164 39.1816L35.5772 39.079L35.6609 38.9956L36.0403 38.4394L36.1901 39.0056L36.2479 39.6636L36.1399 40.1306ZM37.6824 43.6808L37.1297 43.6149L36.8542 43.1629L37.4856 43.0578L37.8013 43.2154L37.88 43.4656L37.6824 43.6808ZM38.0609 37.4636L37.8632 38.0991L37.705 38.0157L37.4286 37.9832L36.9555 37.7463L36.6398 38.0082L36.4422 38.225L36.6005 37.4653L36.7462 37.0417L36.5477 37.0375L36.3534 37.4094L36.2538 37.6946L36.1123 36.9441L36.0637 36.0976L36.6105 35.7332L37.0728 35.2728L37.4169 35.4672L37.4655 36.3128L37.4881 36.5671L37.5107 36.563L38.1027 36.3345L38.3397 36.6622L38.0609 37.4636ZM39.9508 51.7601L39.0691 51.7426L38.7517 50.9853L39.0289 50.7093L39.4652 50.8119L40.1619 51.0129L39.9508 51.7601ZM40.5295 52.6157L40.4549 52.3322L40.2875 52.1412L40.4809 51.7701L40.9264 51.6867L41.0018 51.9694L41.0855 52.0653L40.5295 52.6157ZM45.9909 29.4385L46.0922 29.1583L46.1843 29.0666L46.5461 28.8856L47.0837 28.7088L46.9731 29.1758L46.9472 29.7387L46.5854 29.9189L46.2161 30.2875L45.8636 30.28L45.7045 29.9014L45.9909 29.4385ZM46.7881 33.5366L46.6298 33.8776L46.3526 34.2638L46.1165 33.5132V33.0962L46.1558 32.8018L46.3928 32.7101L46.5503 32.7935L46.7881 33.5366ZM43.39 28.4495H43.5667L44.0691 29.0224L44.0515 29.3968L43.9418 29.8638L43.4394 29.2917L43.2811 28.9131L43.2057 28.6296L43.39 28.4495ZM42.7494 34.6315L43.0525 33.7934L43.2468 33.4215L43.2551 33.2338L43.6161 33.0529L43.8857 32.9645L43.9778 32.8727L44.3128 33.2538L44.0096 34.0928L43.9167 34.1854L43.992 34.4681L43.8815 34.9351L43.5206 35.1094L43.0751 35.1928L42.7318 34.9985L42.7494 34.6315ZM39.7683 30.4393L39.667 30.7186L39.2307 30.6161L39.0632 30.4251L39.0724 30.2374L39.2575 30.054H39.4333L39.7775 30.2483L39.7683 30.4393ZM40.2196 35.8916L39.9592 35.7924L39.8847 35.5097L40.2724 34.7658L40.5412 34.6774L40.8937 34.6841L40.6911 35.2437L40.2196 35.8916ZM40.7062 38.2567L40.5085 38.0532L40.5487 37.7589L41.181 37.2351L41.4564 37.2685L41.7721 37.4261L41.3777 37.8614L40.7062 38.2567ZM41.3107 49.2649L40.9959 49.1073L40.7589 48.7795L40.8778 48.3142L41.0754 47.6787L41.5494 47.4961L42.1021 47.1425L42.0225 47.7321L41.8249 48.3692L41.5477 48.7554L41.3107 49.2649ZM42.0116 51.414L41.6959 51.2564L41.4196 50.8044L41.6574 50.294L42.2495 50.0655L42.3273 51.1496L42.0116 51.414ZM42.3717 33.007L42.1741 33.223L41.8157 32.9411L41.7361 32.6909L41.8157 32.5241L42.0527 32.4324L42.2101 32.5108L42.4471 32.8385L42.3717 33.007ZM44.1947 45.7756L43.9971 46.4111L43.8396 46.3319L43.5625 46.2994L43.0893 46.0625L42.7737 46.3244L42.576 46.5404L42.7343 45.7815L43.0115 44.9759L43.6429 44.8708L44.2349 44.6423L44.4719 44.97L44.1947 45.7756ZM44.811 38.2092L44.6921 38.2551L44.6527 38.5503L44.3764 38.9364L43.9812 38.9489L43.544 38.8372L43.3071 38.5094L43.4653 38.1692L44.0582 37.5212L44.3739 37.2593L44.4534 37.0925L44.8479 37.08L45.1242 37.1125L45.2423 37.0667L45.3997 37.5671L44.811 38.2092ZM44.1972 53.438L43.9368 53.3388L43.8623 53.056L44.1394 52.78L44.4836 52.9743L44.7348 53.2612L44.8093 53.5431L44.5405 53.6323L44.1972 53.438ZM46.4112 56.6812L45.9314 57.5152L45.7062 56.6662L45.9088 56.1066L46.1776 56.0182H46.3543L46.4112 56.6812ZM46.5871 54.9558L45.9549 55.4787L45.3628 56.125L45.2046 56.0466L45.1208 56.0191L45.1962 56.1625L44.8077 56.2459L44.5782 56.0841L44.4024 55.7464L43.8254 55.4587L44.2994 55.276L44.734 54.9683L45.4039 54.1502L45.8385 53.4238L46.1542 53.5806L46.5879 53.6932V54.1102L46.7454 54.6105L46.5871 54.9558ZM47.7594 52.7567L47.5635 53.1278L47.2118 53.1228L46.7839 52.8326L46.8098 52.2705L47.2729 51.8101L47.7594 52.7567ZM47.5082 46.1684L46.8383 46.5671L46.6424 46.3678L46.6817 46.0734L47.3139 45.5496L47.5903 45.583L47.906 45.7406L47.5082 46.1684ZM48.498 41.3148L48.3029 41.5308L47.9478 41.249L47.8691 40.9988L47.9478 40.832L48.1848 40.7402L48.3422 40.8186L48.5792 41.1464L48.498 41.3148ZM49.3505 34.9151L49.1135 35.4263L48.7182 35.4388L48.2451 35.6214L47.9294 35.4647V35.0477L48.364 34.74L48.5616 34.524L48.6797 34.4781L49.0741 34.4656L49.6268 34.5315L49.3505 34.9151Z" fill="#FFA100"/>
<path fill-rule="evenodd" clip-rule="evenodd" d="M52.3198 43.8567C52.2989 43.7967 52.2918 43.7329 52.2989 43.6699C52.1163 42.8359 52.0769 41.8977 52.3365 41.0654C52.4147 40.7841 52.5225 40.5119 52.6581 40.2531C52.3014 39.2068 51.7398 38.1227 50.9733 37.0007C50.6182 37.9131 50.2662 38.8543 49.9173 39.8245C50.2171 41.0237 50.2196 42.2771 49.5916 43.3996C49.2257 44.0526 48.6906 44.4629 48.1898 45C48.1781 45.0117 48.1689 45.0234 48.1588 45.035L48.1538 45.0509C48.2375 45.0375 48.3288 45.025 48.4167 45.015L48.5005 44.9775C48.5523 44.9509 48.6097 44.937 48.668 44.937C48.7262 44.937 48.7837 44.9509 48.8354 44.9775C49.3428 44.9548 49.851 44.9946 50.3486 45.0959C51.1022 45.2485 51.819 45.5504 52.3767 46.0199C52.5262 45.7212 52.6546 45.4124 52.7611 45.0959C52.5878 44.6998 52.4588 44.2736 52.3198 43.8567Z" fill="#FFA100"/>
<path d="M40.4616 41.4525C40.6985 41.5276 40.9372 41.8361 41.1273 41.9971L41.8499 42.6117C42.2025 42.9111 42.8607 42.6367 42.6873 42.1247C42.5105 41.5979 42.243 41.1057 41.8968 40.6703L41.1867 41.3775C41.6582 41.947 42.6237 42.1822 43.23 41.6885C43.3664 41.5768 43.3974 41.3624 43.3589 41.2015C43.2249 40.6669 42.3834 40.0081 41.8466 40.3867C41.7214 40.4776 41.6317 40.6089 41.5928 40.7582C41.5539 40.9075 41.5681 41.0656 41.6331 41.2057C41.7922 41.5534 42.1581 41.6602 42.5157 41.636C43.1579 41.5935 43.163 40.5919 42.5157 40.6352C42.2538 40.6113 42.2508 40.7781 42.5065 41.1356L42.1539 41.2807C42.2125 41.2807 42.3783 41.4142 42.3926 41.4684L42.5215 40.9822C42.6187 40.8988 42.5751 40.9672 42.5081 40.9513C42.4411 40.9355 42.3407 40.9513 42.2569 40.9305C42.1112 40.886 41.9843 40.7948 41.896 40.6711C41.4773 40.1707 40.7982 40.8804 41.1859 41.3783C41.4195 41.6836 41.5993 42.0263 41.7176 42.3915L42.555 41.9053L41.5904 41.0856C41.3182 40.8546 41.0703 40.5985 40.7228 40.4876C40.1057 40.2917 39.8411 41.2574 40.4557 41.4533L40.4616 41.4525Z" fill="#FFA100"/>
<path d="M41.2354 40.0889L41.1968 40.093C40.9791 40.1189 40.7681 40.2298 40.712 40.4608C40.5571 41.0963 41.3568 41.6817 41.8157 41.9978C42.4018 42.4022 43.081 42.6649 43.7416 42.921C44.2533 43.1203 44.5213 42.4206 44.2307 42.087C44.0479 41.8738 43.9101 41.6263 43.8254 41.359C43.6579 40.8503 42.7879 40.9011 42.8389 41.4916C42.947 42.7425 43.2384 44.1402 44.4878 44.7381C44.713 44.8466 45.0538 44.8215 45.1744 44.5588C45.3765 44.1235 45.5627 43.6815 45.7329 43.2329C45.9632 42.6291 44.9944 42.3731 44.7641 42.9668C44.4283 43.8321 44.1467 44.7172 43.9208 45.6171L44.9073 45.7506C44.9202 44.7239 44.7638 43.702 44.4442 42.7258C44.2717 42.2038 43.4603 42.2813 43.4603 42.8651C43.4603 43.4722 43.6855 45.4503 44.7164 45.0167C45.1426 44.8382 45.2883 44.2144 45.3863 43.8133C45.5152 43.281 45.5512 42.7307 45.4926 42.1862C45.4256 41.5516 44.4199 41.5449 44.4878 42.1862C44.5309 42.5407 44.5275 42.8993 44.4777 43.2529C44.4342 43.5256 44.3764 44.0184 44.1679 44.2061L44.5229 44.0593C44.718 44.0418 44.8068 44.357 44.6594 43.9834C44.521 43.6271 44.455 43.247 44.4651 42.8651L43.4787 42.9985C43.7729 43.8883 43.9172 44.8205 43.9058 45.7572C43.8999 46.3168 44.754 46.4427 44.893 45.8898C45.119 44.9879 45.4009 44.1008 45.7371 43.2337L44.7683 42.9677C44.6282 43.3357 44.4757 43.6971 44.3111 44.0518L44.9986 43.8725C44.0875 43.4363 43.9267 42.3972 43.848 41.4899L42.8607 41.6233C43.0008 42.0529 43.2264 42.45 43.5239 42.7909L44.013 41.9569C43.5594 41.7909 43.1184 41.5928 42.6932 41.364C42.4952 41.2562 42.3069 41.1315 42.1305 40.9912C42.0365 40.9132 41.9473 40.8297 41.8634 40.741C41.7378 40.6092 41.7462 40.4616 41.6808 40.7285L41.1968 41.0954L41.2354 41.0913C41.8693 41.0162 41.8768 40.0146 41.2354 40.0905V40.0889Z" fill="#FFA100"/>
<path d="M50.0932 47.4594C49.1118 48.0357 49.3739 49.1849 49.8571 50.0113L50.5446 49.3275L49.2885 48.4668C49.0205 48.2834 48.6278 48.471 48.5507 48.7662C48.3062 49.7003 48.9217 50.4183 49.6109 50.967L50.2197 50.1815C49.9787 50.0432 49.7491 49.8862 49.533 49.7119C49.1143 49.3684 48.4444 49.7953 48.7442 50.3182C49.0508 50.8399 49.4649 51.2909 49.9592 51.6417C50.2347 51.8419 50.6082 51.6225 50.6978 51.3423C50.8028 51.0165 50.9044 50.6891 51.0026 50.3599C51.1893 49.7411 50.2197 49.4776 50.0338 50.0939C49.9349 50.4225 49.8331 50.7499 49.7281 51.0763L50.4667 50.7777C50.117 50.5193 49.8257 50.1905 49.6117 49.8128L48.8195 50.4191C49.099 50.6508 49.3964 50.8602 49.7089 51.0454C50.1853 51.3223 50.7757 50.6234 50.3185 50.259C49.9584 49.973 49.3789 49.5568 49.5163 49.0323L48.7777 49.3308L50.0338 50.1915C50.4608 50.4833 50.9624 49.9188 50.7212 49.5068C50.542 49.1999 50.1786 48.5694 50.5973 48.3234C51.1542 47.9973 50.6492 47.1317 50.0899 47.4594H50.0932Z" fill="#FFA100"/>
<path d="M49.9577 48.6194C49.7841 48.8835 49.6007 49.1412 49.4076 49.3925C49.2552 49.5893 49.3598 49.902 49.5365 50.0379C49.6327 50.112 49.7525 50.1488 49.8738 50.1416C49.9952 50.1344 50.1098 50.0837 50.1964 49.9987C50.4356 49.7471 50.6562 49.4784 50.8562 49.1948C51.0111 48.9822 50.9006 48.6286 50.6762 48.5101C50.4158 48.3734 50.1545 48.4626 49.9887 48.6903C49.8364 48.9026 49.6685 49.1033 49.4863 49.2907L50.2751 49.897C50.4688 49.6468 50.6522 49.3891 50.8252 49.1239C50.8923 49.0094 50.911 48.8731 50.8772 48.7449C50.8435 48.6167 50.76 48.5071 50.6452 48.4401C50.5296 48.3757 50.3934 48.3583 50.2652 48.3918C50.137 48.4252 50.0268 48.5068 49.9577 48.6194Z" fill="#FFA100"/>
<path d="M45.8982 40.3933C45.6704 40.9504 45.3204 41.5041 45.3061 42.1187C45.2944 42.6324 45.5146 43.2462 45.9551 43.549C47.0136 44.2753 47.7639 42.5382 47.8853 41.7668C47.9615 41.2773 47.9096 40.7736 47.6173 40.3599C47.4745 40.1435 47.2746 39.9704 47.0395 39.8596C46.7883 39.7611 46.4743 39.8596 46.2331 39.9513C45.2735 40.3291 44.6547 41.3448 44.5985 42.3497C44.5676 42.906 44.6823 43.4764 45.3296 43.5423C45.9158 43.6023 46.4048 43.1662 46.6501 42.6683C46.939 42.0845 47.0981 41.4741 46.9759 40.8261C46.8813 40.3257 46.6602 39.7611 46.146 39.5602C44.967 39.0973 44.3264 40.5092 44.483 41.4657C44.6672 42.5891 45.7307 43.1653 46.7649 42.6508C47.0235 42.5221 47.2512 42.3393 47.4324 42.1149C47.6136 41.8905 47.7441 41.6298 47.8149 41.3507C47.9397 40.7869 47.7639 40.008 47.1065 39.8871C46.4366 39.7628 45.9183 40.6376 45.6495 41.138C45.2961 41.7877 45.0884 42.5032 44.9059 43.2154C44.7694 43.7499 45.5548 44.1186 45.827 43.6015C46.2751 42.7446 46.6189 41.8375 46.8511 40.8995L45.8647 40.7661C46.0054 42.7342 45.59 44.7524 46.2909 46.6529L47.1283 46.1667C46.733 45.7498 46.4383 45.2385 45.9827 44.8766C45.6093 44.5789 44.9159 44.2712 44.5148 44.6948C44.1422 45.0868 44.3473 45.7906 44.5692 46.2009C44.8673 46.7513 45.3882 47.1258 45.9024 47.4594C46.3344 47.7404 46.8302 47.1942 46.589 46.7747C46.2811 46.2439 45.8669 45.7818 45.3723 45.417C45.0306 45.1577 44.4855 45.5905 44.6346 45.9816C44.8244 46.5017 45.1317 46.9714 45.5329 47.3543C45.9341 47.7373 46.4184 48.0232 46.9482 48.1899C47.2438 48.2841 47.6073 48.0231 47.5847 47.707C47.5599 47.3395 47.4939 46.9758 47.3879 46.6229L46.4668 47.0082C46.6824 47.4052 46.9465 47.774 47.253 48.1065C47.5411 48.4201 48.134 48.1816 48.1114 47.7529C48.0779 47.1124 48.0167 46.2685 47.1978 46.1951C46.337 46.1175 46.1326 47.0507 46.2708 47.7112L46.8888 47.0958C46.4065 47.0224 45.688 47.16 45.8144 47.8155C45.9149 48.335 46.6225 48.6152 47.0705 48.7562C47.6784 48.9463 48.3266 48.9546 48.9571 48.9405C49.5358 48.9271 50.1161 48.9947 50.6444 48.7111C51.2139 48.4051 50.7073 47.5436 50.142 47.8472C49.9184 47.9664 49.648 47.9389 49.4034 47.9355C49.1037 47.9355 48.8047 47.9489 48.5058 47.9456C48.2047 47.9491 47.9041 47.9212 47.6089 47.8622C47.4867 47.8355 46.8042 47.6645 46.7858 47.5494L46.7355 47.9347C46.5229 48.032 46.4857 48.074 46.6242 48.0606C47.0094 48.1199 47.3259 47.8463 47.2422 47.4452C47.2254 47.3668 47.2556 47.25 47.2296 47.1817C47.2296 47.1742 47.2514 47.1191 47.2464 47.1158C47.2413 47.1124 46.9884 47.2334 47.0378 47.1391C47.0508 47.2268 47.069 47.3137 47.0923 47.3993C47.104 47.5169 47.1023 47.6353 47.109 47.7529L47.9665 47.3993C47.7204 47.1277 47.5089 46.8269 47.3368 46.5037C47.0663 46.0033 46.2482 46.3444 46.4157 46.8889C46.4996 47.1549 46.5535 47.4292 46.5764 47.707L47.212 47.2242C46.8468 47.1094 46.5123 46.9142 46.2332 46.653C45.9542 46.3919 45.7377 46.0714 45.6001 45.7156L44.8623 46.281C45.2126 46.5535 45.5038 46.8939 45.7181 47.2817L46.4056 46.5971C46.1243 46.4144 45.8396 46.2268 45.6193 45.9699C45.4939 45.83 45.401 45.6643 45.3472 45.4846C45.3438 45.4381 45.3362 45.3921 45.3246 45.347L45.3204 45.2636C45.0189 45.3987 44.9461 45.4821 45.1018 45.5138C45.1512 45.5796 45.353 45.6564 45.4284 45.7214C45.5484 45.835 45.6603 45.9568 45.7633 46.0858C45.9811 46.3494 46.182 46.6279 46.4132 46.8764C46.7439 47.2267 47.4289 46.8656 47.2505 46.3894C46.5806 44.5797 46.9943 42.6458 46.8603 40.7686C46.8218 40.2315 46.0154 40.058 45.873 40.636C45.6655 41.4904 45.3563 42.3172 44.9519 43.0986L45.873 43.4839C45.9854 43.0014 46.1326 42.5276 46.3135 42.0662C46.3977 41.8631 46.4971 41.6666 46.6108 41.4783C46.7146 41.3065 46.9307 41.128 47.0052 40.9529C47.1448 40.8628 47.1286 40.8233 46.9566 40.8344C46.8151 40.7677 46.7774 40.7927 46.8427 40.9112C46.831 40.9729 46.8519 41.0454 46.8427 41.1105C46.8084 41.2719 46.7292 41.4204 46.6141 41.5391C46.4291 41.7443 46.0623 41.9636 45.7767 41.8369C45.5071 41.7159 45.4284 41.299 45.4544 41.0379C45.4711 40.8711 45.5934 40.3508 45.8002 40.5217C46.2582 40.902 45.9208 42.7584 45.2978 42.5157L45.6486 42.8651C45.4954 42.3097 45.688 41.6934 46.0673 41.2689C46.2448 41.0713 46.4977 40.872 46.7724 40.8394C46.5957 40.8603 46.7021 40.7919 46.7473 40.8895C46.769 40.9379 46.821 40.9821 46.8452 41.0329C46.8933 41.1494 46.9144 41.275 46.9072 41.4007C46.8952 41.6822 46.8242 41.958 46.6987 42.2105C46.6351 42.3458 46.5621 42.4765 46.4801 42.6016C46.4398 42.6498 46.4042 42.7018 46.3738 42.7567L46.4307 42.6983C46.5279 42.7517 46.5471 42.7525 46.4894 42.6983C46.4894 42.5966 46.3219 42.424 46.3068 42.2964C46.2861 42.1352 46.3051 41.9715 46.3621 41.8193C46.5044 41.4324 46.697 41.0521 46.8578 40.6685C47.1015 40.0722 46.1301 39.8129 45.889 40.4025L45.8982 40.3933Z" fill="#FFA100"/>
<path d="M50.9969 45.4946C51.0772 44.0848 50.9802 42.6706 50.708 41.2848C50.6242 40.8428 50.0029 40.8228 49.7869 41.1655C49.3246 41.9094 49.0399 42.75 49.2844 43.6224C49.3094 43.7052 49.3553 43.7804 49.4178 43.8405C49.4802 43.9007 49.5571 43.944 49.6411 43.9661C49.725 43.9883 49.8133 43.9886 49.8975 43.9672C49.9817 43.9457 50.0589 43.903 50.1218 43.8434C50.8302 43.1937 51.4859 41.5917 50.497 40.8837C49.5985 40.2382 47.989 41.3398 48.6865 42.3848C48.9068 42.7142 49.5156 42.7184 49.6077 42.2655C49.6914 41.8285 49.3447 41.2731 48.8281 41.4449C48.7442 41.4679 48.6678 41.5122 48.6063 41.5735C48.5448 41.6347 48.5003 41.7108 48.4772 41.7943C48.4177 42.0946 48.5492 42.2947 48.7678 42.4865C48.9863 42.6783 49.4218 42.7042 49.5574 42.3848C49.7137 42.0481 49.7856 41.6786 49.7668 41.3081C49.7257 40.6685 48.7209 40.6643 48.7619 41.3081C48.7847 41.5018 48.76 41.6981 48.6899 41.8802L49.4787 41.7785C49.3749 41.7229 49.3456 41.6951 49.3908 41.6951L49.441 42.0804L49.446 42.057L49.0952 42.4065L48.6388 41.9962L49.5599 41.8769C49.5038 41.7935 49.7902 41.6742 49.8614 41.6918C49.9795 41.7209 49.9761 41.8586 49.9795 41.9903C49.9903 42.429 49.7282 42.8485 49.4167 43.1353L50.2541 43.3563C50.0799 42.7459 50.332 42.1888 50.6527 41.6701L49.7316 41.5508C49.9804 42.8498 50.0648 44.1747 49.9828 45.4946C49.9451 46.1376 50.95 46.1359 50.9877 45.4946H50.9969Z" fill="#FFA100"/>
<path d="M51.2857 44.1694L51.2815 44.1127C51.2463 43.5548 50.4701 43.428 50.2951 43.9801C50.1402 44.4744 50.0386 44.9838 49.9919 45.4996C49.966 45.7689 50.2431 45.9999 50.4944 45.9999C50.7874 45.9999 50.9708 45.7698 50.9968 45.4996C51.0405 45.0745 51.1292 44.6552 51.2614 44.2486L50.2766 44.116L50.2808 44.1727C50.321 44.8124 51.3267 44.8174 51.2857 44.1727V44.1694Z" fill="#FFA100"/>
<path d="M50.1525 45.171C49.9745 45.3262 49.8294 45.5152 49.7257 45.727C49.622 45.9388 49.5618 46.1691 49.5487 46.4044C49.5355 46.6396 49.5696 46.8751 49.649 47.0971C49.7284 47.3191 49.8515 47.523 50.011 47.697C50.4498 48.1715 51.1591 47.4627 50.722 46.989C50.4054 46.6471 50.5369 46.155 50.8635 45.879C51.355 45.462 50.6416 44.754 50.1525 45.171Z" fill="#FFA100"/>
<path d="M39.3963 34.745C39.1455 34.6465 38.8695 34.631 38.6092 34.7008C38.3404 34.7592 38.1905 35.0652 38.2583 35.3162C38.547 36.4576 39.2094 37.4705 40.1408 38.195C40.5444 38.5061 41.2972 38.0966 40.9296 37.5888L38.7147 34.5256C38.4066 34.1003 37.5943 34.333 37.7936 34.9109C38.1002 35.7881 38.551 36.6085 39.1275 37.3386C39.4801 37.7906 40.2111 37.2093 39.9164 36.7323C39.3168 35.7607 38.7005 34.7917 37.8782 33.9886C37.4528 33.5716 36.8524 34.0953 37.0894 34.5949C37.5239 35.5151 38.1654 36.3232 38.9643 36.9566C39.3754 37.2819 40.0914 36.8674 39.7539 36.3503L37.1513 32.3574C36.9051 31.9813 36.1532 32.0797 36.2151 32.6076C36.3273 33.5816 36.7578 34.4164 37.2443 35.2554C37.5399 35.7666 38.2684 35.4105 38.1654 34.8692C37.8817 33.4689 37.0763 32.2274 35.9112 31.3942C35.5486 31.129 35.0579 31.5668 35.1734 31.9587C35.3956 32.7199 35.7285 33.4445 36.1615 34.1095L37.0257 33.6083C36.364 32.6016 35.6405 31.6366 34.8594 30.7187C34.4667 30.2566 33.8428 30.8446 34.0698 31.3249C34.3813 31.9757 34.8811 32.5188 35.505 32.8844C35.938 33.143 36.4437 32.6284 36.1925 32.1998C35.6712 31.3114 35.047 30.4871 34.3327 29.7438C33.9324 29.3268 33.2717 29.8589 33.5439 30.3509C33.8361 30.8724 34.2412 31.3228 34.7296 31.6694C35.1324 31.9637 35.696 31.385 35.4163 30.9847C35.1395 30.58 34.8081 30.2152 34.4315 29.9006C34.0965 29.6228 33.3797 29.8739 33.5941 30.3876C34.9658 33.7042 38.1486 35.7682 39.6819 38.9773L40.4707 38.371C39.6891 37.5126 38.9439 36.623 38.2349 35.7024C37.8556 35.202 37.0098 35.6498 37.3674 36.2077C38.0412 37.2585 38.7454 38.2896 39.4801 39.3009C39.5474 39.4154 39.6576 39.4987 39.7865 39.5323C39.9155 39.5659 40.0525 39.5472 40.1676 39.4802C40.2826 39.4131 40.3662 39.3034 40.4 39.175C40.4337 39.0466 40.4149 38.9101 40.3476 38.7955C40.2673 38.6193 40.2094 38.4339 40.1751 38.2434L39.254 38.6287L40.1994 39.8855C40.5829 40.395 41.4555 39.8963 41.0669 39.3801L40.1224 38.1242C39.7874 37.6763 39.0874 37.9282 39.2012 38.5094C39.2592 38.7835 39.3512 39.0494 39.4751 39.3009L40.3426 38.7955C39.6102 37.7836 38.9068 36.7531 38.2324 35.704L37.3649 36.2094C38.1185 37.1993 38.9165 38.1583 39.7581 39.079C40.1634 39.5235 40.7789 38.9589 40.5469 38.4727C39.053 35.3454 35.8894 33.3356 34.5613 30.1215L33.7239 30.6086C34.0391 30.8631 34.3175 31.1598 34.5512 31.4901L35.2387 30.8054C34.8963 30.5497 34.6147 30.222 34.4139 29.8455L33.6251 30.4518C34.2791 31.1332 34.8503 31.8889 35.3267 32.7035L36.0075 32.0238C35.5347 31.7423 35.16 31.3231 34.9339 30.8229L34.1451 31.4292C34.87 32.283 35.5412 33.1807 36.1548 34.117C36.5065 34.6532 37.3757 34.1537 37.0224 33.6116C36.6342 33.0213 36.3354 32.3773 36.1356 31.7002L35.3978 32.2656C36.3373 32.966 36.9772 33.9934 37.1898 35.1428L38.111 34.7575C37.7241 34.0903 37.3087 33.3956 37.2191 32.6151L36.2821 32.8652L38.8889 36.8607L39.6777 36.2544C38.9435 35.6783 38.355 34.9388 37.9594 34.0953L37.1697 34.7016C37.9334 35.4472 38.4945 36.342 39.0513 37.2435L39.841 36.6372C39.3756 36.0382 39.0121 35.3671 38.765 34.6507L37.8438 35.036L40.0596 38.0941L40.8484 37.4878C40.0463 36.8822 39.474 36.0239 39.2247 35.0527L38.8738 35.6682C38.9164 35.657 38.9609 35.6552 39.0043 35.6628C39.0477 35.6705 39.0889 35.6874 39.125 35.7124C39.7238 35.955 39.9842 34.9877 39.3922 34.7475L39.3963 34.745Z" fill="#FFA100"/>
<path d="M39.6342 33.0121C39.1839 32.656 38.6735 32.3827 38.1269 32.2048C37.8925 32.1289 37.5408 32.294 37.5089 32.5542C37.4018 33.3173 37.5282 34.0795 37.9938 34.7125C38.3941 35.2562 39.0824 35.6223 39.7322 35.2671C41.0929 34.5257 40.8459 32.4083 40.3334 31.2433C40.1861 30.9097 39.6192 30.9238 39.4659 31.2433C39.1227 31.9365 38.9535 32.7022 38.9727 33.4749C38.9936 34.0478 39.0774 35.2771 39.831 35.3838C40.722 35.5098 40.6793 34.1888 40.6743 33.6325C40.6662 32.78 40.4989 31.9364 40.181 31.1448C40.001 30.6953 39.3755 30.6445 39.2122 31.1448C38.7519 32.5415 38.7557 34.0487 39.2231 35.443C39.2445 35.5163 39.2823 35.5838 39.3335 35.6404C39.3848 35.6971 39.4483 35.7415 39.5193 35.7703C39.5902 35.7991 39.6668 35.8115 39.7432 35.8067C39.8197 35.8019 39.8941 35.7799 39.9608 35.7424C40.3602 35.5072 40.4172 35.0969 40.4398 34.6683C40.4634 34.1341 40.4286 33.5988 40.336 33.0721C40.2003 32.2665 39.9549 31.2257 39.0615 30.9655C38.8161 30.8947 38.4937 31.0489 38.4435 31.315C38.3423 31.7997 38.3529 32.301 38.4744 32.7811C38.5724 33.148 38.7667 33.7193 39.1326 33.9061C40.202 34.4515 40.3787 32.3516 40.351 31.7653H39.3462C39.4801 32.8178 39.8662 34.3255 41.1725 34.4481C41.7428 34.5023 42.1991 34.0612 42.0099 33.4824C41.8424 32.9495 41.3291 32.5092 40.856 32.2448C40.6416 32.1247 40.2765 32.1714 40.1685 32.4241C40.0261 32.7577 40.001 33.0913 40.2179 33.399C40.4348 33.7067 41.0486 33.7393 41.139 33.2798C41.2847 32.5699 41.2396 31.8343 41.0084 31.1473C40.9801 31.0537 40.9253 30.9702 40.8505 30.9069C40.7758 30.8435 40.6842 30.8031 40.5868 30.7904C40.4895 30.7777 40.3906 30.7933 40.3019 30.8353C40.2133 30.8774 40.1387 30.944 40.0872 31.0273C39.6535 31.7111 39.218 32.4024 38.6637 32.9954C38.1613 33.5308 37.4562 34.1671 36.654 33.9961C35.9489 33.8485 35.4063 33.2289 34.9851 32.6877C34.4431 31.9814 33.9798 31.2186 33.6034 30.4126L32.8179 31.0231C33.5984 31.8771 34.625 32.4116 35.6508 32.917C36.0176 33.098 36.5334 32.7952 36.3885 32.3516C36.2449 31.9009 36.002 31.4879 35.6777 31.1426C35.3533 30.7974 34.9556 30.5286 34.5136 30.3559C34.0556 30.1675 33.796 30.747 33.9459 31.0906C34.2471 31.7774 34.7969 32.3261 35.4858 32.6276C36.072 32.8836 36.5845 32.0213 35.9933 31.7636C35.459 31.5422 35.0346 31.1187 34.8134 30.5861L34.249 31.3241C34.526 31.4426 34.774 31.619 34.9763 31.8415C35.1786 32.064 35.3304 32.3273 35.4214 32.6134L36.1591 32.0488C35.207 31.5802 34.249 31.1065 33.5289 30.3117C33.1219 29.8664 32.5089 30.4318 32.7392 30.918C33.1851 31.8663 33.7477 32.7558 34.414 33.5658C34.9834 34.253 35.7303 34.8876 36.6473 35.0027C38.657 35.2529 40.0471 32.9662 40.959 31.5293L40.0378 31.41C40.2224 31.9227 40.2675 32.4748 40.1685 33.0104L41.0896 32.8911L41.0402 32.9262L40.3519 33.108C40.5746 33.2247 40.7708 33.3859 40.928 33.5817C40.965 33.6327 40.9994 33.6856 41.031 33.7401C41.1086 33.9069 41.1904 33.8127 41.2763 33.4574C41.2361 33.4124 41.0251 33.3473 40.9657 33.3006C40.5152 32.9495 40.418 32.2907 40.351 31.7645C40.2723 31.1457 39.3143 31.104 39.3462 31.7645C39.3621 32.0059 39.3512 32.2484 39.3135 32.4875C39.2825 32.6626 39.2507 32.9829 39.1176 33.1088L39.4734 32.962C39.728 33.1844 39.7869 33.2019 39.6501 33.0146L39.5857 32.8961C39.5162 32.7533 39.4631 32.603 39.4274 32.4483C39.3612 32.1632 39.3561 31.8674 39.4123 31.5802L38.7943 31.9296C39.1896 32.0422 39.2733 32.8578 39.3395 33.183C39.3988 33.4936 39.4327 33.8085 39.4408 34.1246C39.445 34.253 39.4408 34.3822 39.4408 34.5107C39.4408 34.5899 39.3889 34.9135 39.4542 34.8751L40.1919 35.1737C39.7768 33.9539 39.7724 32.6326 40.1794 31.41H39.2105C39.5292 32.1599 39.685 32.9685 39.6677 33.7826C39.6677 33.9336 39.6577 34.0845 39.6434 34.2346C39.6384 34.288 39.5639 34.6108 39.6351 34.5257L39.9901 34.3797C40.1886 34.3531 40.1191 34.3564 40.0739 34.1788C40.0462 34.0645 40.0203 33.9494 40.0035 33.8335C39.9728 33.598 39.9639 33.3601 39.9767 33.123C40.0026 32.6461 40.123 32.179 40.3309 31.7486H39.4642C39.7707 32.4458 39.9323 33.5708 39.4307 34.2246C39.1963 34.5315 38.9693 34.3656 38.7818 34.0979C38.5251 33.7241 38.4162 33.2691 38.4761 32.8203L37.8581 33.1697C38.2427 33.2902 38.6033 33.4762 38.9241 33.7193C39.4266 34.1095 40.145 33.4057 39.6342 33.0121Z" fill="#FFA100"/>
<path d="M16.866 20.3485C16.3742 20.5793 15.9296 20.8988 15.5547 21.2909C15.2281 21.6303 15.4919 22.0957 15.9097 22.1457C16.5252 22.2183 16.8719 21.3952 17.0921 20.9523C17.3768 20.3761 16.5788 19.9024 16.2246 20.447L15.3763 21.7521C15.1812 22.0531 15.3956 22.3701 15.6769 22.4868C16.2371 22.7203 16.9958 22.1782 17.2856 21.7171C17.6607 21.1216 17.1181 20.4353 16.4482 20.5712C15.7783 20.7071 15.5379 21.3826 15.342 21.9372C15.2264 22.2625 15.0908 22.6044 15.3529 22.8996C15.4536 23.0093 15.5882 23.0823 15.7354 23.107C15.8825 23.1318 16.0338 23.1069 16.1651 23.0364C16.6801 22.7695 16.9272 21.6712 16.3385 21.3585C15.7498 21.0457 15.2356 21.8847 15.3755 22.3959C15.6007 23.2157 16.4431 22.8721 16.9179 22.5327C17.4915 22.1232 17.9747 21.6395 18.2058 20.9632C18.3281 20.6054 17.9412 20.236 17.5878 20.3469C17.1223 20.4945 16.9104 21.0249 16.5143 21.2993L17.268 21.7312L17.2897 21.2259C17.3165 20.5821 16.3117 20.5829 16.2849 21.2259L16.2631 21.7312C16.248 22.0932 16.7086 22.3784 17.0168 22.1632C17.2169 22.0301 17.4032 21.8772 17.5728 21.7071C17.6484 21.6276 17.7197 21.5441 17.7863 21.4569L17.865 21.3551C17.9739 21.2292 17.9689 21.2142 17.8499 21.3118L17.232 20.6955C17.1256 21.0082 16.9104 21.2442 16.6659 21.4594C16.548 21.5632 16.4235 21.6593 16.2933 21.7471C16.2179 21.798 16.14 21.8463 16.0596 21.8905C16.4225 22.0862 16.4738 22.2133 16.2137 22.2716L15.8268 22.2216L15.8787 22.2616L15.6594 21.9664C15.6743 22.0133 15.6729 22.0639 15.6552 22.1099C15.5932 22.2939 15.7328 22.3217 16.0739 22.1933L16.2212 22.5468C16.1861 22.25 16.4775 21.9055 16.5696 21.6362C16.7237 21.5161 16.681 21.3662 16.4415 21.1867C16.3871 21.2454 16.3295 21.3011 16.269 21.3535C16.2003 21.4093 16.0303 21.5569 15.9516 21.5203L16.2514 22.2558L17.0997 20.9507L16.2321 20.4453C16.1626 20.5871 16.0898 20.7263 16.0094 20.8623C15.9759 20.9206 15.9407 20.9782 15.9047 21.0349C15.7931 21.1377 15.7972 21.1739 15.9173 21.1433L16.2732 21.9973C16.5891 21.6677 16.9651 21.4008 17.381 21.2109C17.9672 20.9373 17.4564 20.0742 16.8736 20.3469L16.866 20.3485Z" fill="#FFA100"/>
<path d="M14.7765 20.2892C14.748 20.6161 14.7263 20.9438 14.7145 21.2716C14.7028 21.5993 14.748 21.8662 15.0419 22.0447C15.1086 22.0823 15.183 22.1044 15.2595 22.1093C15.336 22.1142 15.4127 22.1018 15.4837 22.073C15.5547 22.0442 15.6182 21.9997 15.6694 21.943C15.7207 21.8862 15.7584 21.8186 15.7797 21.7453C15.837 21.5208 15.874 21.2917 15.8902 21.0606C15.8961 20.9689 15.8902 20.8738 15.8994 20.7829C15.8986 20.7415 15.9063 20.7003 15.922 20.662C15.8885 20.712 15.9011 20.7078 15.9606 20.6478C16.1699 20.476 16.1389 20.1182 15.9606 19.9398C15.7529 19.7329 15.4581 19.768 15.2496 19.9398C14.7891 20.3175 14.9406 20.9655 14.8108 21.4792L15.5486 21.1807L15.5059 21.154L15.6859 21.3333C15.7093 21.445 15.7194 21.4584 15.716 21.375C15.716 21.3233 15.716 21.2716 15.7219 21.2199C15.7219 21.1165 15.7303 21.0131 15.7361 20.9097C15.7479 20.702 15.7629 20.4927 15.7814 20.2892C15.8048 20.0198 15.5301 19.7888 15.2789 19.7888C14.9875 19.7888 14.7999 20.019 14.7765 20.2892Z" fill="#FFA100"/>
<path d="M19.4444 19.4819C20.2663 19.2653 21.0453 18.9111 21.748 18.4345C22.2781 18.0734 21.7798 17.2086 21.2406 17.5705C20.9056 17.7949 20.5707 18.02 20.2248 18.226C20.095 18.3027 19.9636 18.3778 19.8304 18.4487C19.7416 18.4962 19.652 18.5412 19.5616 18.5846C19.3715 18.6288 19.3791 18.678 19.5817 18.733C19.5641 18.7389 18.7586 16.6282 18.6974 16.4714C18.5191 16.0152 17.8944 15.9793 17.7286 16.4714C17.5774 16.9174 17.5652 17.3985 17.6934 17.8516C17.8132 18.2944 18.5886 18.3603 18.6623 17.8516C18.7583 17.2278 18.7797 16.5948 18.7259 15.966C18.6664 15.3297 17.6616 15.3238 17.721 15.966C17.7755 16.5051 17.7662 17.0486 17.6934 17.5855H18.6623C18.5841 17.3062 18.5964 17.0094 18.6974 16.7374H17.7286L18.3767 18.3953C18.5283 18.7823 18.638 19.4119 19.0466 19.6112C19.477 19.8205 19.9602 19.512 20.337 19.3126C20.8221 19.0446 21.2928 18.7514 21.7472 18.4345L21.2397 17.5705C20.6112 18.0001 19.9133 18.3192 19.1764 18.5137C18.5517 18.6805 18.8163 19.6446 19.4435 19.4786L19.4444 19.4819Z" fill="#FFA100"/>
<path d="M13.8095 15.8109C13.2627 16.6449 13.9929 17.6882 14.8144 17.9792C15.4249 18.1944 15.6878 17.2286 15.0815 17.0143C14.8462 16.9309 14.5155 16.5623 14.6754 16.318C15.0305 15.7776 14.1612 15.2755 13.8079 15.8126L13.8095 15.8109Z" fill="#FFA100"/>
<path d="M32.8163 21.4752C32.9445 22.1937 33.3242 22.8438 33.8881 23.3098C34.2323 23.5942 34.7096 23.4041 34.7456 22.9563C34.8016 22.2836 34.6201 21.6126 34.2323 21.059C34.0288 20.7671 33.5549 20.7054 33.3648 21.059C32.6643 22.3609 32.0911 23.7268 31.6532 25.1379C31.6079 25.283 31.587 25.4798 31.5108 25.6107C31.4346 25.7417 31.3626 25.755 31.2152 25.8167C30.9573 25.9251 30.7237 26.0627 30.5838 26.3171C30.2639 26.9008 30.6567 27.5296 31.0427 27.9641L31.3978 27.1102C31.1621 27.0803 30.9373 26.9936 30.7429 26.8575C30.5485 26.7215 30.3904 26.5403 30.2824 26.3296L29.4885 26.9367C30.3468 27.8032 31.4262 28.5212 32.699 28.4595C33.2799 28.435 33.8451 28.2646 34.3421 27.9643C34.8391 27.6639 35.2519 27.2433 35.542 26.7416C35.9364 26.046 36.4849 24.0462 35.0973 24.0729C33.8781 24.0929 33.4527 25.7575 33.544 26.709C33.6051 27.3378 34.5488 27.3654 34.5488 26.709V25.6733C34.5488 25.0286 33.5532 25.0286 33.544 25.6733C33.5348 26.2996 33.6084 27.0251 33.904 27.5914C34.1678 28.0917 34.7783 28.2927 35.2305 27.8874C35.4574 27.6831 35.5729 27.4012 35.6986 27.131L36.1884 26.0752L37.169 23.9628L36.2328 23.7126C36.2112 24.5666 36.2498 25.421 36.3484 26.2695C36.4438 27.0259 37.1732 27.3028 37.725 26.7291C38.6587 25.7583 38.7475 24.2164 38.2182 23.0405C38.0508 22.6735 37.5383 22.7586 37.3507 23.0405C36.6807 24.0571 36.3031 25.237 36.2588 26.4522C36.2428 26.83 36.6975 27.0776 37.0124 26.8842C38.096 26.2237 38.6227 24.8785 38.23 23.6659C38.2051 23.583 38.1592 23.5078 38.0967 23.4475C38.0343 23.3873 37.9573 23.3441 37.8733 23.322C37.7892 23.2999 37.7009 23.2997 37.6167 23.3213C37.5325 23.343 37.4553 23.3859 37.3926 23.4458C36.8644 23.9682 36.4825 24.6191 36.2848 25.3338C36.0871 26.0486 36.0804 26.8024 36.2655 27.5205C36.3542 27.8616 36.7168 27.9466 37.004 27.8199C38.0441 27.3595 38.8111 26.1311 38.9937 25.0353C39.198 23.8094 38.3807 22.7569 37.0752 22.8979C36.4237 22.9679 35.8384 23.3023 35.2891 23.6359C34.7792 23.9417 34.2957 24.2893 33.8437 24.675C32.9402 25.4548 32.21 26.4672 32.0015 27.6589L32.9226 27.5388C32.8197 27.3988 32.7456 27.24 32.7045 27.0714C32.6634 26.9028 32.6561 26.7278 32.6831 26.5564C32.7593 25.9176 31.7536 25.9235 31.6783 26.5564C31.6159 27.0816 31.75 27.6113 32.0551 28.0442C32.2753 28.3603 32.8925 28.3861 32.9762 27.9249C33.2844 26.1369 34.9022 24.9269 36.4279 24.1438C36.8064 23.9495 37.3222 23.7493 37.7309 23.982C38.0717 24.1755 38.0658 24.605 37.9947 24.9402C37.823 25.75 37.2712 26.614 36.4991 26.9559L37.2368 27.2544C37.0954 26.7074 37.1008 26.1329 37.2525 25.5886C37.4042 25.0443 37.6968 24.5492 38.101 24.153L37.2636 23.9345C37.3909 24.3158 37.3858 24.7287 37.2491 25.1068C37.1124 25.4849 36.8521 25.8063 36.51 26.0194L37.2636 26.4513C37.3084 25.4134 37.6395 24.4078 38.2207 23.545H37.3474C37.5012 23.9034 37.5663 24.2934 37.5371 24.682C37.508 25.0707 37.3855 25.4467 37.1799 25.7783C37.1191 25.8552 37.0632 25.9356 37.0124 26.0194L37.3474 26.2295L37.3331 26.1086C37.3809 25.8893 37.2812 25.534 37.2678 25.3097C37.2343 24.7759 37.2259 24.2414 37.2351 23.7068C37.2435 23.2356 36.5142 22.9921 36.299 23.4566C35.8685 24.3868 35.4364 25.3169 35.0027 26.247C34.898 26.473 34.8009 26.7049 34.687 26.9267C34.646 26.9874 34.6104 27.0516 34.5806 27.1185L34.8151 27.1744C34.7889 27.1341 34.7694 27.0899 34.7573 27.0435C34.7339 26.835 34.6267 26.6206 34.5899 26.4096C34.5526 26.166 34.5375 25.9196 34.5446 25.6733H33.5398V26.7049H34.5446C34.4999 26.3403 34.5432 25.9703 34.6711 25.6257C34.724 25.468 34.8073 25.3221 34.9164 25.1962C34.96 25.1521 35.0303 25.1279 35.0697 25.0845L35.135 25.0645L34.9868 25.0953C34.9282 25.1912 34.9541 25.4681 34.924 25.5907C34.8844 25.7546 34.8282 25.9142 34.7565 26.0669C34.6032 26.3939 34.38 26.6837 34.1025 26.9159C33.8245 27.1404 33.5006 27.3015 33.1533 27.388C32.8061 27.4744 32.4441 27.4841 32.0928 27.4162C31.3316 27.2645 30.722 26.7616 30.1911 26.2253C29.785 25.8159 29.1284 26.3371 29.4014 26.8316C29.8201 27.5822 30.5403 28.0175 31.3852 28.1084C31.8541 28.1584 31.999 27.5463 31.7411 27.2544C31.6481 27.1494 31.4137 26.8783 31.4899 26.7749C31.5903 26.6415 31.9504 26.5906 32.0936 26.468C32.5123 26.1136 32.5835 25.4623 32.7468 24.9669C33.14 23.7903 33.6339 22.6494 34.2231 21.5569H33.3648C33.6567 21.9595 33.7905 22.4546 33.7407 22.9487L34.5991 22.6002C34.1642 22.2529 33.8741 21.7572 33.7851 21.2091C33.6721 20.5762 32.7032 20.8447 32.8163 21.4752Z" fill="#FFA100"/>
<path d="M35.2257 25.213C34.8549 25.78 34.4306 26.3106 33.9587 26.7975L34.7961 27.0185C34.7224 26.4972 34.6755 25.9727 34.6454 25.4481C34.6153 24.9236 33.7611 24.7276 33.6581 25.3147C33.5995 25.6063 33.6097 25.9075 33.688 26.1946C33.7664 26.4816 33.9106 26.7465 34.1095 26.9684C34.5282 27.4588 35.2391 26.7483 34.8204 26.2612C34.7401 26.1688 34.6811 26.06 34.6477 25.9424C34.6142 25.8248 34.6072 25.7013 34.627 25.5807L33.6405 25.4481C33.6757 26.0636 33.741 26.674 33.8273 27.2828C33.8809 27.6648 34.4285 27.7498 34.6647 27.5038C35.195 26.9553 35.6717 26.3577 36.0882 25.7192C36.4424 25.1779 35.5732 24.6759 35.2207 25.2146L35.2257 25.213Z" fill="#FFA100"/>
<path d="M49.4646 49.4934C48.9896 49.9599 48.6474 50.5435 48.4731 51.1847C48.3751 51.5363 48.4091 51.9113 48.5686 52.2398C48.7282 52.5682 49.0024 52.8276 49.34 52.9693C49.6775 53.111 50.0554 53.1255 50.4029 53.0099C50.7504 52.8943 51.0437 52.6567 51.2281 52.3414C51.3646 52.1198 51.4702 51.8808 51.5421 51.6309C51.7523 50.9103 51.3453 50.1439 50.6695 49.8596C49.9561 49.5602 49.2091 49.8445 48.7871 50.4742C48.649 50.6949 48.5433 50.9342 48.4731 51.1847C48.2545 51.9019 48.6766 52.6741 49.3456 52.9552C50.0147 53.2362 50.8571 52.996 51.2281 52.3414C51.3671 52.0858 51.5232 51.8398 51.6953 51.605L51.46 51.9086C51.5053 51.8519 51.5521 51.7968 51.6007 51.7418C51.876 51.4554 52.0335 51.0766 52.042 50.6802C52.042 50.3124 51.8745 49.8721 51.6007 49.6185C51.0271 49.0948 50.0298 48.9931 49.4687 49.6185C49.1447 49.9893 48.862 50.3939 48.6255 50.8253L51.3805 51.982C51.3989 51.9197 51.4207 51.8584 51.4458 51.7985L51.2934 52.1571C51.3219 52.0993 51.3543 52.0436 51.3905 51.9903L48.6355 50.8336C48.6247 50.8752 48.6113 50.9162 48.5953 50.9562L48.7469 50.5976C48.712 50.6768 48.6714 50.7535 48.6255 50.8269L51.3805 51.9836C51.409 51.8754 51.4448 51.7693 51.4877 51.6659L51.3361 52.0245C51.4093 51.8611 51.5003 51.7061 51.6074 51.5625L51.3721 51.866C51.4415 51.778 51.5164 51.6944 51.5965 51.6159C52.1592 51.0638 52.1927 50.038 51.5965 49.4926C51.0003 48.9472 50.065 48.9038 49.4646 49.4926V49.4934Z" fill="#FFA100"/>
<path d="M49.8863 52.5606C49.9135 52.5703 49.9415 52.5773 49.9701 52.5815L50.3712 52.6357H50.3913C50.4088 52.6357 50.4256 52.6357 50.4432 52.6357C50.5194 52.6357 50.6065 52.6157 50.6743 52.6065C50.7421 52.5973 50.83 52.589 50.9062 52.574C50.9369 52.568 50.9671 52.5599 50.9967 52.5498C51.375 52.4335 51.6943 52.1777 51.8894 51.8346C52.0844 51.4915 52.1404 51.0871 52.0459 50.7042L51.8944 50.3456C51.7636 50.1227 51.5773 49.9372 51.3534 49.8069L50.9933 49.656C50.7311 49.5842 50.4542 49.5842 50.192 49.656C50.1525 49.6694 50.1118 49.6792 50.0705 49.6852L50.4708 49.6318C50.4366 49.6351 50.4021 49.6351 50.3678 49.6318L50.7681 49.6852C50.7395 49.6814 50.7114 49.6744 50.6843 49.6643C50.49 49.6019 50.2823 49.5927 50.0831 49.6376C49.7932 49.6804 49.5213 49.804 49.299 49.9943C49.0767 50.1845 48.9131 50.4336 48.827 50.7126L48.7734 51.1112C48.7748 51.3792 48.8486 51.6419 48.987 51.8718L49.2223 52.1753C49.408 52.3599 49.6389 52.493 49.8922 52.5615L49.8863 52.5606Z" fill="#FFA100"/>
<path d="M52.8901 45.3862C52.8817 45.3695 52.875 45.3529 52.8675 45.3362C52.7206 45.0246 52.5947 44.7037 52.4907 44.3755C52.4337 44.2037 52.3785 44.0311 52.3232 43.8601C52.3019 43.7994 52.2947 43.7347 52.3023 43.6708C52.2872 43.5982 52.2721 43.5265 52.2587 43.4531C51.3485 45.4371 49.3706 49.2074 47.5936 48.8972C45.1904 48.4802 49.1847 50.5984 49.1847 50.5984C49.1847 50.5984 52.1993 48.4026 53.4453 46.3036C53.4252 46.266 53.4059 46.2285 53.3867 46.1902C53.1539 45.9808 53.0132 45.6548 52.8901 45.3862Z" fill="#FFA100"/>
<path d="M51.5435 53.78L51.8617 49.817C50.9967 51.7143 51.5435 53.78 51.5435 53.78Z" fill="#FFA100"/>
<path d="M52.622 40.325L53.1244 34.0337C51.3583 38.0417 51.4446 40.27 52.2275 41.4951C52.2548 41.3517 52.2903 41.2099 52.3339 41.0706C52.4048 40.8132 52.5013 40.5634 52.622 40.325Z" fill="#FFA100"/>
<path d="M52.8901 45.3862C52.8817 45.3695 52.8742 45.352 52.8667 45.3354C52.6439 44.88 52.4957 44.3872 52.3349 43.9043L51.8618 49.817C52.0941 49.3034 52.4207 48.8376 52.8248 48.4435C53.27 48.0154 53.6382 47.5144 53.9134 46.9624C53.6938 46.7347 53.5136 46.4723 53.38 46.186C53.1539 45.98 53.0132 45.6539 52.8901 45.3862Z" fill="#FFA100"/>
<path d="M51.3928 47.2417C51.1273 48.0056 50.712 48.8262 50.7178 49.6502C50.722 50.1339 51.4129 50.3482 51.6549 49.9004C51.8256 49.5885 51.923 49.242 51.9396 48.8871C51.9773 48.2441 50.9716 48.2458 50.9347 48.8871C50.9257 49.0658 50.875 49.24 50.7865 49.3958L51.7227 49.646C51.7177 48.9446 52.1338 48.1599 52.3616 47.5036C52.5735 46.8931 51.6029 46.6313 51.3928 47.2375V47.2417Z" fill="#FFA100"/>
<path d="M51.4488 47.572C51.1573 48.3459 50.8936 49.134 50.958 49.9721C51.0075 50.6101 52.0123 50.6151 51.9629 49.9721C51.9051 49.2216 52.1563 48.5327 52.4176 47.838C52.6445 47.2342 51.674 46.9732 51.4488 47.572Z" fill="#FFA100"/>
<path d="M50.8848 48.6652C50.8375 49.0792 50.8642 49.4981 50.9635 49.9028C51.0556 50.2773 51.2608 50.6175 51.3093 51.0045C51.419 51.8759 50.9836 52.7124 50.5967 53.4605C50.3011 54.0326 51.1678 54.5396 51.4642 53.9658C51.8963 53.1319 52.3209 52.2504 52.3267 51.2889C52.3242 50.8807 52.2423 50.4768 52.0856 50.0996C51.8996 49.6457 51.8319 49.1522 51.8888 48.6652C51.9591 48.0256 50.9534 48.0306 50.8839 48.6652H50.8848Z" fill="#FFA100"/>
<path d="M49.7886 49.2715C50.2676 49.0355 50.0791 48.5601 50.0155 48.1507C49.9467 47.6959 50.0107 47.231 50.1997 46.8113C50.6494 45.8164 51.7347 45.6063 52.7002 45.3428C53.3232 45.176 53.0586 44.2078 52.433 44.3779C51.3545 44.6723 50.2332 44.9525 49.5625 45.9115C49.2787 46.328 49.095 46.804 49.0257 47.3025C48.942 47.8563 49.0567 48.3341 49.1438 48.8762L49.194 48.4901L49.2778 48.4067C48.6983 48.6927 49.2066 49.5559 49.7844 49.2707L49.7886 49.2715Z" fill="#FFA100"/>
<path d="M51.7134 44.6749C50.8609 45.3654 50.1516 46.3003 50.2312 47.4494C50.2756 48.0882 51.2804 48.0933 51.2361 47.4494C51.1741 46.5546 51.7703 45.9116 52.4235 45.3821C52.9259 44.9759 52.2108 44.2713 51.7134 44.6749Z" fill="#FFA100"/>
<path d="M50.3124 48.0358C50.1248 47.4036 49.954 46.7648 50.2906 46.1502C50.5862 45.6115 51.1498 45.3271 51.7544 45.3246C52.4008 45.3246 52.4017 44.3238 51.7544 44.3238C51.3051 44.3197 50.8621 44.4284 50.4662 44.6399C50.0702 44.8514 49.7343 45.1589 49.4892 45.5339C48.9315 46.3987 49.0705 47.3686 49.3444 48.2993C49.5269 48.9156 50.4966 48.6529 50.3132 48.0333L50.3124 48.0358Z" fill="#FFA100"/>
<path d="M50.116 43.925C49.7325 44.5229 49.5592 45.2593 49.4671 45.9548C49.375 46.6503 49.4478 47.3725 49.8606 47.9705C50.2241 48.4975 51.0958 47.998 50.7282 47.4651C50.41 47.0048 50.3832 46.4752 50.4769 45.9356C50.5691 45.4144 50.6938 44.8799 50.9794 44.4295C51.3286 43.885 50.4594 43.3829 50.1119 43.9292L50.116 43.925Z" fill="#FFA100"/>
<path d="M50.0574 43.6208C49.0291 44.8717 49.174 46.9608 50.1512 48.1892C50.5523 48.6945 51.2591 47.9815 50.8622 47.482C50.4879 47.0116 50.405 46.4504 50.3882 45.8683C50.3731 45.3379 50.415 44.7566 50.7684 44.3288C51.1753 43.8351 50.4686 43.1229 50.0574 43.6208Z" fill="#FFA100"/>
<path d="M49.5138 44.0678C49.2157 44.7124 49.1537 45.4138 49.2383 46.1151C49.307 46.688 49.4334 47.4836 50.0221 47.7555C50.6108 48.0274 51.1166 47.1617 50.5296 46.8907C50.2633 46.7681 50.2306 46.0784 50.2139 45.8199C50.1879 45.4029 50.2047 44.9559 50.3813 44.569C50.6493 43.9852 49.7835 43.479 49.513 44.0644L49.5138 44.0678Z" fill="#FFA100"/>
<path d="M49.761 45.2837C49.6547 45.7349 49.3005 46.0785 49.2016 46.5447C49.0816 47.0665 49.0597 47.606 49.1372 48.1358C49.2385 48.7696 50.2073 48.5011 50.106 47.8698C50.0425 47.4277 50.0897 46.9768 50.2433 46.5572C50.3899 46.2069 50.6419 45.9334 50.7315 45.5564C50.8798 44.9301 49.9109 44.6624 49.7627 45.2904L49.761 45.2837Z" fill="#FFA100"/>
<path d="M50.223 48.5602C50.2992 48.1799 50.0856 47.9864 49.955 47.652C49.8306 47.3312 49.7939 46.9833 49.8487 46.6437C49.9542 46.0066 50.3787 45.5121 50.9456 45.226C51.5125 44.94 51.0143 44.0702 50.4382 44.3621C50.0841 44.5408 49.7695 44.7882 49.5127 45.0896C49.2559 45.3911 49.0621 45.7405 48.9426 46.1175C48.6621 47.024 48.9309 47.7896 49.3194 48.6019L49.2692 48.2166L49.2541 48.2916C49.1277 48.9204 50.0965 49.1898 50.223 48.5577V48.5602Z" fill="#FFA100"/>
<path d="M53.3809 39.1708C53.288 39.0474 53.2041 38.9175 53.1297 38.7822C52.9173 39.1824 52.7899 39.6218 52.7554 40.0732C52.9386 39.7558 53.1478 39.454 53.3809 39.1708Z" fill="#FFA100"/>
<path d="M59.0479 31.4032L59.1928 30.7202L58.9927 31.5542C59.0119 31.5058 59.0295 31.4549 59.0479 31.4032Z" fill="#FFA100"/>
<path d="M52.3417 41.0464C52.4401 40.7094 52.579 40.3854 52.7554 40.0815C52.5553 39.7271 52.613 39.2984 53.1305 38.7822H52.0419C52.0419 38.7822 51.4022 39.8714 52.1818 42.8686C52.1142 42.2566 52.1686 41.6374 52.3417 41.0464Z" fill="#FFA100"/>
<path d="M54.563 37.9641L54.6467 37.8923C53.9014 38.2918 53.2525 38.6562 53.126 38.7822L52.9351 38.7488C52.575 38.8397 50.1943 39.6345 50.1943 39.6345L52.5599 40.4551C53.0063 39.4877 53.816 38.612 54.563 37.9641Z" fill="#FFA100"/>
<path d="M52.0124 38.8347C50.2924 41.4316 51.7452 44.4897 53.1294 46.8581C53.4543 47.4144 54.3227 46.9115 53.997 46.3527C52.7987 44.3029 51.3743 41.6134 52.8799 39.34C53.2374 38.8005 52.3674 38.2993 52.0124 38.8347Z" fill="#FFA100"/>
<path d="M37.3544 54.1135C39.2158 54.1135 40.7248 52.6106 40.7248 50.7568C40.7248 48.903 39.2158 47.4001 37.3544 47.4001C35.4929 47.4001 33.9839 48.903 33.9839 50.7568C33.9839 52.6106 35.4929 54.1135 37.3544 54.1135Z" fill="#DD312C"/>
<path d="M16.9044 42.9686C17.3252 42.3132 17.9317 41.7969 18.6472 41.4848C19.3628 41.1728 20.1551 41.0791 20.9241 41.2155C21.6931 41.352 22.4042 41.7125 22.9675 42.2515C23.5307 42.7905 23.9208 43.4837 24.0884 44.2435C24.2561 45.0033 24.1937 45.7955 23.9092 46.52C23.6247 47.2444 23.1308 47.8686 22.4901 48.3136C21.8493 48.7585 21.0905 49.0042 20.3096 49.0196C19.5286 49.035 18.7606 48.8194 18.1027 48.4001C17.2207 47.838 16.599 46.95 16.3742 45.9314C16.1495 44.9129 16.3402 43.8471 16.9044 42.9686Z" fill="#DD312C"/>
<path d="M27.0953 38.6953C27.5932 37.9204 28.3107 37.31 29.157 36.9412C30.0033 36.5724 30.9403 36.4618 31.8497 36.6233C32.7591 36.7849 33.6 37.2113 34.2661 37.8488C34.9321 38.4863 35.3934 39.3061 35.5916 40.2046C35.7898 41.1032 35.7161 42.0401 35.3797 42.8969C35.0433 43.7537 34.4593 44.4919 33.7017 45.0182C32.944 45.5445 32.0467 45.8352 31.1231 45.8537C30.1995 45.8721 29.2912 45.6174 28.513 45.1217C27.4693 44.4568 26.7336 43.4061 26.4677 42.2009C26.2019 40.9957 26.4276 39.7347 27.0953 38.6953Z" fill="#DD312C"/>
<path d="M44.5215 59.7785C46.0414 60.1537 47.4314 59.8127 48.4974 59.0571C48.0168 61.5965 45.5155 63.668 42.5001 62.9241L8.74268 54.5971C9.08447 54.1074 9.31847 53.5512 9.42933 52.9651C9.54098 52.373 9.66603 51.7848 9.80448 51.2004L10.1001 51.2838L44.5215 59.7785Z" fill="#DB8C3E"/>
<path d="M1.59106 49.9429C1.88076 49.4651 2.26356 49.05 2.71691 48.7219C3.17026 48.3937 3.68497 48.1593 4.23071 48.0325C4.77646 47.9056 5.34218 47.8888 5.89455 47.9831C6.44691 48.0774 6.97473 48.2808 7.44689 48.5815C7.91905 48.8821 8.326 49.2739 8.64375 49.7336C8.96149 50.1933 9.18361 50.7118 9.297 51.2584C9.4104 51.8049 9.41277 52.3686 9.30399 52.9161C9.1952 53.4636 8.97746 53.9839 8.6636 54.4462C8.64015 54.4829 8.61587 54.5196 8.59158 54.5555C7.97669 55.4499 7.03708 56.0715 5.97089 56.2893C4.9047 56.5071 3.79524 56.3041 2.87644 55.723L2.82787 55.6922C2.13647 55.2356 1.59557 54.5862 1.27282 53.8251C0.950062 53.064 0.859782 52.2251 1.01327 51.4132C1.03253 51.3106 1.05262 51.2088 1.07272 51.1063C1.18439 50.6942 1.35923 50.3018 1.59106 49.9429Z" fill="#DB8C3E"/>
<path d="M21.8557 18.9741C22.334 18.6362 22.8776 18.4011 23.452 18.2837C24.0264 18.1663 24.619 18.1692 25.1923 18.2922C25.7655 18.4152 26.3068 18.6555 26.7817 18.9981C27.2566 19.3406 27.6548 19.7777 27.951 20.2817L27.9996 20.3651C28.5326 21.2759 28.7047 22.3522 28.482 23.3828C28.2594 24.4134 27.6582 25.324 26.7962 25.9359C18.2358 32.0213 12.195 41.0045 9.80408 51.2047C9.66674 51.789 9.54169 52.3772 9.42893 52.9693C9.31807 53.5555 9.08407 54.1116 8.74227 54.6014L8.59406 54.5647C8.61834 54.5288 8.64262 54.4921 8.66607 54.4554C8.99228 53.9475 9.20434 53.3753 9.28769 52.7781C9.37105 52.181 9.32375 51.5729 9.14902 50.9956C8.97429 50.4183 8.67626 49.8855 8.27539 49.4337C7.87451 48.9818 7.38026 48.6217 6.82653 48.3779C6.2728 48.1342 5.67268 48.0126 5.06733 48.0214C4.46198 48.0303 3.86571 48.1694 3.31941 48.4293C2.77312 48.6892 2.28971 49.0636 1.90234 49.527C1.51498 49.9903 1.23281 50.5317 1.0752 51.1138C3.61598 38.1465 11.0535 26.6435 21.8557 18.9741Z" fill="#DB8C3E"/>
<path d="M27.7703 24.9734L49.5104 52.0143C51.4514 54.4328 50.6107 57.5592 48.4972 59.057C47.4312 59.8126 46.0411 60.1537 44.5213 59.7784L10.0998 51.2879L9.8042 51.2045C12.1951 41.0043 18.2359 32.0211 26.7964 25.9358C27.1711 25.6695 27.5 25.3445 27.7703 24.9734ZM33.5482 37.285C32.77 36.7892 31.8617 36.5342 30.9381 36.5525C30.0145 36.5707 29.117 36.8613 28.3592 37.3875C27.6014 37.9137 27.0173 38.6519 26.6807 39.5087C26.3442 40.3655 26.2703 41.3025 26.4685 42.2011C26.6666 43.0997 27.1279 43.9196 27.7939 44.5572C28.46 45.1947 29.3009 45.6212 30.2104 45.7828C31.1198 45.9444 32.057 45.8338 32.9033 45.4649C33.7496 45.0961 34.4671 44.4856 34.965 43.7106C35.6325 42.6714 35.8583 41.4106 35.5926 40.2057C35.3269 39.0007 34.5915 37.9501 33.5482 37.285ZM39.1712 47.9296C38.6098 47.5717 37.9544 47.3876 37.2879 47.4007C36.6214 47.4137 35.9738 47.6233 35.4269 48.0029C34.88 48.3825 34.4584 48.9151 34.2155 49.5333C33.9726 50.1516 33.9191 50.8276 34.062 51.4761C34.2049 52.1245 34.5376 52.7162 35.0182 53.1764C35.4987 53.6365 36.1054 53.9444 36.7617 54.0611C37.4179 54.1778 38.0941 54.098 38.7049 53.832C39.3156 53.5659 39.8334 53.1255 40.1928 52.5664C40.6745 51.8165 40.8375 50.9068 40.646 50.0373C40.4544 49.1678 39.9239 48.4097 39.1712 47.9296ZM22.3582 41.7759C21.7005 41.3567 20.9327 41.1412 20.152 41.1566C19.3712 41.172 18.6126 41.4176 17.9721 41.8623C17.3315 42.3071 16.8377 42.9311 16.5532 43.6553C16.2687 44.3795 16.2063 45.1715 16.3737 45.9311C16.5412 46.6907 16.9311 47.3838 17.4941 47.9227C18.057 48.4616 18.7678 48.8222 19.5366 48.9588C20.3053 49.0954 21.0975 49.0019 21.8129 48.6902C22.5283 48.3784 23.1348 47.8624 23.5557 47.2074C24.1199 46.3289 24.3108 45.2633 24.0862 44.2447C23.8616 43.2262 23.2401 42.3381 22.3582 41.7759Z" fill="#FFBB12"/>
<path opacity="0.3" d="M22.8281 18.4602C23.6404 18.8164 24.3191 19.4187 24.7675 20.1815L24.8161 20.2649C25.232 20.9725 25.4316 21.7855 25.3904 22.6044C25.3492 23.4233 25.069 24.2124 24.5841 24.875L46.3234 51.9167C48.2653 54.3352 47.4246 57.4617 45.311 58.9603C44.9761 60.7116 43.6806 62.2469 41.9146 62.7798L42.5008 62.9241C45.5153 63.6679 48.0174 61.5964 48.4981 59.057C50.6117 57.5559 51.4524 54.4294 49.5113 52.0143L27.7704 24.9734C28.2553 24.3108 28.5355 23.5217 28.5767 22.7028C28.6179 21.8839 28.4183 21.0709 28.0023 20.3633L27.9537 20.2799C27.4502 19.4252 26.6605 18.7744 25.7233 18.4416C24.786 18.1089 23.761 18.1155 22.8281 18.4602Z" fill="black"/>
<path d="M13.2693 28.0426C13.7792 27.4505 14.3093 26.8617 14.8452 26.2913C14.8845 26.249 14.9201 26.2036 14.9516 26.1553C15.0766 25.9612 15.1243 25.7276 15.0853 25.5003C15.0462 25.273 14.9232 25.0684 14.7404 24.9268C14.5576 24.7853 14.3283 24.7168 14.0974 24.7351C13.8666 24.7533 13.6509 24.8568 13.4928 25.0253C12.9377 25.6149 12.3875 26.2245 11.8599 26.8392C11.7808 26.9313 11.7206 27.0381 11.6829 27.1534C11.6451 27.2687 11.6306 27.3903 11.64 27.5113C11.6591 27.7555 11.7748 27.9821 11.9617 28.1414C12.1486 28.3006 12.3913 28.3794 12.6365 28.3604C12.8818 28.3414 13.1094 28.2262 13.2693 28.0401V28.0426Z" fill="black"/>
<path d="M25.3787 17.387C24.6812 17.2387 23.9604 17.2362 23.2619 17.3798C22.5633 17.5233 21.9024 17.8098 21.3208 18.221C19.5367 19.4869 17.8335 20.8622 16.2211 22.339C16.0479 22.5068 15.9473 22.7353 15.9406 22.9758C15.9339 23.2164 16.0217 23.45 16.1853 23.6271C16.3489 23.8042 16.5755 23.9107 16.8167 23.924C17.058 23.9373 17.2949 23.8564 17.4772 23.6984C19.033 22.2743 20.676 20.9477 22.3968 19.7263C22.77 19.4627 23.1941 19.2794 23.6422 19.1878C24.0903 19.0963 24.5527 19.0985 24.9999 19.1944C25.4471 19.2903 25.8693 19.4778 26.2399 19.745C26.6104 20.0121 26.9212 20.3531 27.1523 20.7462L27.1573 20.7545L27.2034 20.8321C27.62 21.5442 27.754 22.3859 27.5791 23.1914C27.4041 23.997 26.9329 24.7083 26.258 25.1853C18.007 31.0464 12.0325 39.5566 9.33784 49.2865C8.63543 48.2792 7.59215 47.5577 6.39909 47.2539C5.20602 46.9502 3.94303 47.0847 2.84142 47.6328C4.32318 42.216 6.70434 37.0842 9.88632 32.4499C10.0217 32.2473 10.0714 31.9998 10.0246 31.761C9.97786 31.5222 9.8384 31.3114 9.63653 31.1743C9.43465 31.0373 9.18665 30.9851 8.94636 31.0291C8.70607 31.073 8.49288 31.2096 8.35308 31.4091C4.32598 37.2903 1.54114 43.9252 0.167656 50.9111C-0.103463 51.9426 -0.0426604 53.0328 0.34149 54.0281C0.725641 55.0234 1.41376 55.8735 2.30884 56.4585L2.36579 56.4952L2.39593 56.5144H2.40263C3.08519 56.9455 3.85938 57.2119 4.66357 57.2925L4.76238 57.3017C5.5648 57.3799 6.37446 57.2698 7.12643 56.9801C7.8784 56.6905 8.55175 56.2293 9.09248 55.6338L42.2738 63.8198C43.8548 64.2093 45.4558 63.9566 46.7831 63.1076C48.0466 62.2953 48.9551 61.0373 49.3262 59.5859C50.4939 58.6419 51.2602 57.2934 51.4716 55.8106C51.6902 54.2552 51.2497 52.7007 50.2314 51.4348L47.8482 48.4701C47.6945 48.2788 47.4706 48.1561 47.2261 48.1292C46.9815 48.1022 46.7361 48.1731 46.544 48.3262C46.3519 48.4794 46.2288 48.7023 46.2017 48.9459C46.1746 49.1895 46.2458 49.4338 46.3996 49.6251L48.7836 52.5898C49.6746 53.699 49.7382 54.8148 49.6344 55.5554C49.5566 56.1025 49.3681 56.6281 49.0802 57.1005C48.7923 57.5728 48.4111 57.982 47.9596 58.3032C47.0385 58.9579 45.8938 59.163 44.7449 58.8795L25.5546 54.1477C25.3157 54.0887 25.0632 54.1267 24.8524 54.2532C24.6417 54.3797 24.49 54.5844 24.4308 54.8223C24.3716 55.0602 24.4098 55.3117 24.5368 55.5216C24.6639 55.7315 24.8694 55.8825 25.1083 55.9415L44.2977 60.675C45.0733 60.8705 45.8808 60.9069 46.6709 60.7817C46.4141 61.0811 46.1148 61.3416 45.7824 61.5548C45.1502 61.9593 44.1077 62.3696 42.7218 62.0277L10.1049 53.9809C10.2069 53.7066 10.2856 53.4243 10.3402 53.1369C10.3913 52.8692 10.4457 52.6023 10.501 52.338L19.3873 54.5296C19.5756 54.5764 19.7739 54.5631 19.9542 54.4916C20.1345 54.42 20.2877 54.2939 20.3921 54.131C20.4469 54.0462 20.487 53.9529 20.511 53.8549C20.5403 53.7372 20.5461 53.6149 20.5279 53.4949C20.5097 53.375 20.4679 53.2598 20.405 53.156C20.3421 53.0521 20.2592 52.9616 20.1612 52.8897C20.0632 52.8177 19.9518 52.7657 19.8336 52.7366L10.9222 50.5375C13.3953 40.9073 19.2091 32.4587 27.3349 26.6864C27.4672 26.5922 27.5953 26.4921 27.7176 26.3862L38.4436 39.7295C38.5197 39.8242 38.6138 39.9031 38.7206 39.9615C38.8273 40.02 38.9446 40.057 39.0656 40.0703C39.1867 40.0836 39.3093 40.0731 39.4263 40.0392C39.5432 40.0053 39.6524 39.9488 39.7474 39.8729C39.8266 39.8104 39.8948 39.7351 39.9492 39.6502C40.0536 39.4874 40.1043 39.2961 40.0941 39.1032C40.0839 38.9103 40.0133 38.7254 39.8923 38.5744L28.9041 24.9051C29.3183 24.1313 29.5268 23.2648 29.5096 22.3881C29.4925 21.5113 29.2503 20.6536 28.8062 19.8964V19.8897C28.7936 19.868 28.781 19.8464 28.7676 19.8247L28.7618 19.8147C28.3978 19.1985 27.909 18.6644 27.3266 18.2465C26.7442 17.8286 26.0809 17.5359 25.3787 17.387ZM7.8833 53.9567C7.86572 53.9842 7.8473 54.0126 7.82636 54.0401C7.34926 54.7391 6.61695 55.2249 5.78545 55.3941C4.95395 55.5632 4.08899 55.4024 3.37483 54.9457L3.36311 54.9391L3.34301 54.9257C2.80389 54.5698 2.38199 54.0636 2.13001 53.4704C1.87802 52.8771 1.80712 52.2231 1.92616 51.5899C1.94291 51.5015 1.95966 51.414 1.97724 51.3264C2.10366 50.8751 2.32632 50.4563 2.63005 50.0986C2.93378 49.7408 3.31143 49.4525 3.73722 49.2534C4.16301 49.0542 4.62693 48.9488 5.09733 48.9445C5.56773 48.9401 6.03354 49.0369 6.46298 49.2281C6.89242 49.4194 7.27538 49.7006 7.58574 50.0527C7.89609 50.4048 8.12654 50.8194 8.26136 51.2682C8.39618 51.717 8.4322 52.1896 8.36695 52.6535C8.30171 53.1175 8.13674 53.562 7.8833 53.9567Z" fill="black"/>
<path d="M41.4179 41.9477C41.2258 42.1008 41.1027 42.3236 41.0755 42.5671C41.0483 42.8106 41.1194 43.0548 41.273 43.2462L42.5751 44.8665C42.7289 45.0579 42.9527 45.1805 43.1973 45.2075C43.4419 45.2345 43.6873 45.1636 43.8794 45.0104C44.0715 44.8572 44.1946 44.6343 44.2217 44.3908C44.2488 44.1472 44.1776 43.9028 44.0238 43.7115L42.7217 42.092C42.568 41.9007 42.3443 41.7781 42.0998 41.751C41.8553 41.724 41.61 41.7947 41.4179 41.9477Z" fill="black"/>
<path d="M22.8607 40.9979C22.0486 40.4795 21.1003 40.2127 20.1358 40.2311C19.1714 40.2496 18.2341 40.5525 17.4426 41.1016C16.651 41.6507 16.0408 42.4213 15.6891 43.3159C15.3374 44.2104 15.2601 45.1888 15.4668 46.1271C15.6736 47.0655 16.1552 47.9217 16.8506 48.5874C17.5461 49.2532 18.4242 49.6985 19.3739 49.8671C20.3235 50.0357 21.3021 49.9199 22.1857 49.5346C23.0693 49.1492 23.8183 48.5114 24.3379 47.702C25.0324 46.6173 25.2669 45.3026 24.99 44.046C24.7131 42.7894 23.9475 41.6934 22.8607 40.9979ZM22.777 46.7096C22.4554 47.2112 21.9918 47.6065 21.4446 47.8457C20.8975 48.0848 20.2914 48.157 19.703 48.0531C19.1147 47.9492 18.5705 47.6739 18.1392 47.262C17.708 46.8501 17.409 46.3201 17.2802 45.739C17.1514 45.1579 17.1985 44.5518 17.4156 43.9974C17.6327 43.443 18.0099 42.9651 18.4997 42.6242C18.9894 42.2833 19.5697 42.0947 20.1671 42.0822C20.7645 42.0697 21.3522 42.2339 21.8559 42.554C22.5309 42.9838 23.007 43.6629 23.1797 44.442C23.3524 45.2212 23.2076 46.0367 22.777 46.7096Z" fill="black"/>
<path d="M40.975 53.0644C41.4334 52.3513 41.6691 51.5189 41.6524 50.6724C41.6357 49.8259 41.3673 49.0034 40.8812 48.3088C40.3951 47.6142 39.713 47.0788 38.9214 46.7702C38.1297 46.4617 37.2639 46.3938 36.4335 46.5753C35.6032 46.7568 34.8455 47.1795 34.2563 47.7898C33.6671 48.4002 33.2729 49.1708 33.1235 50.0043C32.9741 50.8378 33.0763 51.6967 33.4171 52.4724C33.7578 53.248 34.3219 53.9056 35.038 54.362C35.9984 54.9726 37.1629 55.1789 38.2759 54.9357C39.3889 54.6924 40.3596 54.0194 40.975 53.0644ZM35.2976 49.4459C35.558 49.0409 35.9332 48.7219 36.3756 48.5293C36.8181 48.3366 37.308 48.279 37.7833 48.3636C38.2587 48.4482 38.6982 48.6712 39.0463 49.0046C39.3943 49.3379 39.6354 49.7665 39.7389 50.2363C39.8423 50.706 39.8037 51.1958 39.6277 51.6436C39.4517 52.0915 39.1464 52.4773 38.7502 52.7523C38.3541 53.0274 37.885 53.1792 37.4022 53.1888C36.9194 53.1983 36.4446 53.0651 36.0378 52.8059C35.4928 52.4576 35.1088 51.9082 34.9701 51.2783C34.8313 50.6484 34.9491 49.9894 35.2976 49.4459Z" fill="black"/>
<path d="M34.0483 36.507C33.1156 35.9127 32.0269 35.6071 30.9198 35.629C29.8127 35.6509 28.737 35.9992 27.8287 36.63C26.9204 37.2607 26.2203 38.1455 25.8169 39.1724C25.4135 40.1994 25.3249 41.3225 25.5624 42.3996C25.7999 43.4767 26.3527 44.4594 27.151 45.2236C27.9494 45.9878 28.9573 46.4991 30.0473 46.6928C31.1374 46.8866 32.2607 46.754 33.2751 46.312C34.2896 45.8699 35.1496 45.1382 35.7465 44.2094C36.5452 42.9633 36.815 41.4525 36.4966 40.0085C36.1783 38.5645 35.2978 37.3053 34.0483 36.507ZM29.0131 44.3462C28.3893 43.9488 27.8978 43.3762 27.6007 42.7006C27.3037 42.0251 27.2145 41.277 27.3444 40.5509C27.4743 39.8249 27.8175 39.1535 28.3305 38.6217C28.8436 38.0899 29.5034 37.7216 30.2267 37.5633C30.9499 37.405 31.7041 37.4639 32.3938 37.7325C33.0834 38.001 33.6776 38.4673 34.1012 39.0722C34.5248 39.6771 34.7587 40.3935 34.7735 41.1308C34.7882 41.8682 34.5831 42.5933 34.184 43.2145C33.6479 44.0462 32.8025 44.6323 31.8331 44.8441C30.8638 45.0559 29.8496 44.8763 29.0131 44.3445V44.3462Z" fill="black"/>
</g>
<defs>
<clipPath id="clip0_2_6">
<rect width="61" height="64" fill="white"/>
</clipPath>
</defs>
</svg>
